<?xml version="1.0" encoding="UTF-8" standalone="no"?>
<!-- Created with Inkscape (http://www.inkscape.org/) -->

<svg
   xmlns:dc="http://purl.org/dc/elements/1.1/"
   xmlns:cc="http://creativecommons.org/ns#"
   xmlns:rdf="http://www.w3.org/1999/02/22-rdf-syntax-ns#"
   xmlns:svg="http://www.w3.org/2000/svg"
   xmlns="http://www.w3.org/2000/svg"
   xmlns:sodipodi="http://sodipodi.sourceforge.net/DTD/sodipodi-0.dtd"
   xmlns:inkscape="http://www.inkscape.org/namespaces/inkscape"
   width="210mm"
   height="297mm"
   viewBox="0 0 744.09448819 1052.3622047"
   id="svg2"
   version="1.1"
   inkscape:version="0.91 r13725"
   sodipodi:docname="coldev.svg">
  <defs
     id="defs4" />
  <sodipodi:namedview
     id="base"
     pagecolor="#ffffff"
     bordercolor="#666666"
     borderopacity="1.0"
     inkscape:pageopacity="0.0"
     inkscape:pageshadow="2"
     inkscape:zoom="0.35"
     inkscape:cx="251.24151"
     inkscape:cy="705.77888"
     inkscape:document-units="px"
     inkscape:current-layer="layer1"
     showgrid="false"
     inkscape:window-width="1366"
     inkscape:window-height="744"
     inkscape:window-x="0"
     inkscape:window-y="24"
     inkscape:window-maximized="1" />
  <metadata
     id="metadata7">
    <rdf:RDF>
      <cc:Work
         rdf:about="">
        <dc:format>image/svg+xml</dc:format>
        <dc:type
           rdf:resource="http://purl.org/dc/dcmitype/StillImage" />
        <dc:title></dc:title>
      </cc:Work>
    </rdf:RDF>
  </metadata>
  <g
     inkscape:label="Capa 1"
     inkscape:groupmode="layer"
     id="layer1">
    <g
       id="g5130"
       inkscape:export-filename="/home/nover/Documentos/Projects/MonteríaJS/website/public/images/coldev.png"
       inkscape:export-xdpi="71.357452"
       inkscape:export-ydpi="71.357452">
      <g
         transform="matrix(1.8409014,0,0,1.8409014,963.56635,-97.956626)"
         id="g4935">
        <path
           style="fill:#eaceba"
           inkscape:connector-curvature="0"
           d="m -237.29432,399.40396 -9.13128,15.90611 c 0,0 -11.92958,-3.68197 -1.03095,-26.51018 0.58911,-1.17823 1.17823,-2.35646 1.76734,-3.53469 1.91463,2.94558 3.53469,5.74387 4.56564,8.10033 0.88368,2.06191 2.20919,4.12381 3.82925,6.03843 z"
           id="path4139" />
        <path
           style="fill:#eaceba"
           inkscape:connector-curvature="0"
           d="m -217.2644,418.10837 -14.28604,24.74283 c 0,0 -11.92959,-3.68197 -1.03096,-26.51018 1.03096,-2.35646 2.35646,-5.00747 3.97653,-7.95305 3.53469,3.09285 7.36394,6.18571 11.34047,9.7204 z"
           id="path4141" />
        <path
           style="fill:#eaceba"
           inkscape:connector-curvature="0"
           d="m -191.93245,436.37094 -12.5187,38.58704 c 0,0 -12.37142,-1.17823 -6.48027,-25.77379 1.17823,-5.15476 3.24014,-12.07686 5.44932,-19.88263 4.8602,4.27108 9.57312,6.18571 13.54965,7.06938 z"
           id="path4143" />
        <path
           style="fill:#a87345"
           inkscape:connector-curvature="0"
           d="m -169.84064,368.6227 -22.09181,67.74824 c -3.82925,-0.88367 -8.68945,-2.7983 -13.54965,-7.06938 8.68945,-29.01392 22.38637,-69.51559 22.38637,-69.51559 l 6.62755,0.44184 6.62754,8.39489 z"
           id="path4145" />
        <path
           style="fill:#77512d"
           inkscape:connector-curvature="0"
           d="m -175.58451,345.94177 -41.67989,72.1666 c -3.97653,-3.53469 -7.80578,-6.62755 -11.34047,-9.7204 13.54965,-26.21562 41.6799,-73.78667 41.6799,-73.78667 l 6.33298,1.76735 5.00748,9.57312 z"
           id="path4147" />
        <path
           style="fill:#634222"
           inkscape:connector-curvature="0"
           d="m -190.60694,318.40064 -46.68738,81.00332 c -1.47279,-1.91462 -2.79829,-3.97652 -3.82925,-6.1857 -1.17823,-2.35647 -2.65101,-5.00748 -4.56564,-8.10034 12.37142,-24.74283 43.88908,-78.05775 43.88908,-78.05775 l 6.33299,1.76734 4.8602,9.57313 z"
           id="path4149" />
        <path
           style="fill:#6c4927"
           inkscape:connector-curvature="0"
           d="m -199.73823,298.66528 -55.81866,96.90944 c 0,0 -11.92958,-3.68197 -1.03095,-26.51018 10.89863,-22.82822 45.65642,-81.73973 45.65642,-81.73973 l 6.33299,1.76735 4.8602,9.57312 z"
           id="path4151" />
        <path
           style="fill:#6e4a28"
           inkscape:connector-curvature="0"
           d="m -214.31883,293.21596 -55.81866,96.90944 c 0,0 -11.92958,-3.68197 -1.03095,-26.51018 10.89863,-22.82821 45.65643,-81.73972 45.65643,-81.73972 l 6.33298,1.76734 4.8602,9.57312 z"
           id="path4153" />
        <path
           style="fill:#513416"
           inkscape:connector-curvature="0"
           d="m -236.41064,284.52652 -38.43977,105.00977 c 0,0 -19.14624,-10.89863 -12.37141,-35.19963 6.77482,-24.301 12.96053,-55.81866 12.96053,-55.81866 l 31.37038,-22.53365 6.48027,8.54217 z"
           id="path4155" />
        <path
           style="fill:#531516"
           inkscape:connector-curvature="0"
           d="m -171.60798,368.76998 c -2.94558,7.95305 -27.39385,73.63939 -34.31596,103.09514 -1.91462,-3.24013 -3.68197,-8.39489 -2.79829,-16.20066 1.62006,-16.05339 26.80473,-83.65435 30.19215,-92.49108 -1.32551,-0.73639 -2.65102,-1.47278 -4.27109,-1.91462 -0.73639,-0.29456 -1.47279,-0.58912 -2.20918,-0.88367 -2.94558,7.65849 -28.86664,77.32136 -30.78127,94.55297 -2.0619,19.73536 9.57313,26.95202 10.01496,27.24658 l 4.41837,2.7983 0.88367,-5.15476 c 3.53469,-22.09182 29.75031,-93.66931 34.75779,-107.07168 -2.20918,-0.88367 -4.27108,-2.50373 -5.89115,-3.97652 z"
           id="path4157" />
        <path
           style="fill:#531516"
           inkscape:connector-curvature="0"
           d="m -188.98688,355.95672 c 0,0 0,0 0,0 -11.63502,21.50271 -32.99044,62.15165 -41.38533,83.50707 -1.47279,-3.38741 -2.35647,-8.83672 -0.44184,-16.34794 2.94557,-11.63503 22.97549,-50.07479 34.90507,-72.1666 -0.58912,-0.29456 -1.03095,-0.44184 -1.62007,-0.7364 -1.47278,-0.88367 -2.50374,-1.91462 -3.68197,-3.09285 -0.14727,-0.14728 -0.29455,-0.29456 -0.44183,-0.44184 -11.92958,22.09182 -32.84317,62.00437 -36.0833,74.67034 -4.8602,19.14624 5.59659,28.13025 6.03843,28.42481 l 3.97652,3.38741 1.62007,-5.00748 c 5.30204,-17.23162 29.89759,-64.21355 42.85813,-88.21999 -2.06191,-1.03095 -3.97653,-2.35646 -5.74388,-3.97653 z"
           id="path4159" />
        <path
           style="fill:#531516"
           inkscape:connector-curvature="0"
           d="m -242.3018,377.90126 c -0.14727,1.91463 -0.29455,3.82925 -0.58911,5.74387 7.21666,-12.66597 22.23909,-37.99792 28.27752,-48.01288 -0.58911,-0.29456 -1.03095,-0.58911 -1.47278,-0.88367 -1.32551,-1.03095 -2.35646,-2.0619 -3.38741,-3.24013 -0.14728,-0.14728 -0.29456,-0.29456 -0.44184,-0.44184 -4.27109,7.21666 -16.93706,28.27753 -22.38638,37.70337 0.14728,3.09285 0.29456,6.18571 0,9.13128 z"
           id="path4161" />
        <path
           style="fill:#531516"
           inkscape:connector-curvature="0"
           d="m -209.16407,341.5234 c -12.66598,21.35543 -28.71936,49.19112 -36.0833,65.53906 -0.44184,-1.32551 -2.65102,-6.18571 -2.94558,-8.10033 -1.76734,2.50374 -3.68197,4.8602 -5.44931,7.36394 1.76734,4.8602 6.33299,10.75135 6.62754,10.89863 l 3.82925,3.53469 1.76735,-4.8602 c 5.00748,-13.69693 23.5646,-45.95098 37.99792,-70.25198 -2.20918,-1.03095 -4.1238,-2.35646 -5.74387,-4.12381 z"
           id="path4163" />
        <path
           style="fill:#531516"
           inkscape:connector-curvature="0"
           d="m -241.12357,345.20537 c 2.20919,-4.56564 7.6585,-15.31699 9.7204,-19.4408 -2.20918,-0.88367 -4.27108,-1.91462 -6.48026,-2.79829 -1.91463,3.97652 -7.36394,14.5806 -9.42584,18.85168 2.35646,0.58912 4.41836,1.62007 6.1857,3.38741 z"
           id="path4165" />
        <path
           style="fill:#531516"
           inkscape:connector-curvature="0"
           d="m -252.61131,333.27579 c 3.38741,-5.74387 6.62754,-11.48774 9.7204,-16.6425 -2.0619,-1.03095 -4.12381,-2.20918 -6.18571,-3.24013 -3.68197,6.18571 -7.6585,12.96053 -11.63502,19.88263 0,0.29456 0.14728,0.44184 0.14728,0.7364 2.50373,-0.14728 5.15475,-0.44184 7.95305,-0.7364 z"
           id="path4167" />
        <path
           style="fill:#531516"
           inkscape:connector-curvature="0"
           d="m -268.37014,330.77205 c 3.38741,-5.74387 10.75135,-18.11529 13.84421,-23.27004 -2.06191,-1.03096 -4.12381,-2.20919 -6.18571,-3.24014 -3.68197,6.18571 -7.6585,12.96053 -11.63503,19.88264 0,0.29455 -3.97652,7.21666 -3.97652,7.36394 2.35646,-0.14728 5.15475,-0.44184 7.95305,-0.7364 z"
           id="path4169" />
        <path
           style="fill:#ffffff;stroke:#531516;stroke-width:5.22751331;stroke-linecap:round;stroke-miterlimit:10"
           inkscape:connector-curvature="0"
           stroke-miterlimit="10"
           d="m -192.81613,355.07305 c 0,0 -5.74387,11.48775 -9.27856,16.6425"
           id="path4171" />
        <path
           style="fill:#a87345"
           inkscape:connector-curvature="0"
           d="m -468.522,368.6227 34.75779,106.33528 c 0,0 12.37142,-1.17823 6.48027,-25.77379 -5.89115,-24.44828 -27.83569,-89.39822 -27.83569,-89.39822 l -6.62755,0.44184 -6.77482,8.39489 z"
           id="path4173" />
        <path
           style="fill:#77512d"
           inkscape:connector-curvature="0"
           d="m -462.77813,345.94177 55.81866,96.90943 c 0,0 11.92958,-3.68197 1.03095,-26.51018 -10.75135,-22.82821 -45.65642,-81.73972 -45.65642,-81.73972 l -6.33299,1.76735 -4.8602,9.57312 z"
           id="path4175" />
        <path
           style="fill:#634222"
           inkscape:connector-curvature="0"
           d="m -447.75569,318.40064 55.81865,96.90943 c 0,0 11.92958,-3.68197 1.03096,-26.51018 -10.89863,-22.82821 -45.65643,-81.73972 -45.65643,-81.73972 l -6.33298,1.76734 -4.8602,9.57313 z"
           id="path4177" />
        <path
           style="fill:#eaceba"
           inkscape:connector-curvature="0"
           d="m -400.92104,399.40396 9.13128,15.90611 c 0,0 11.92958,-3.68197 1.03095,-26.51018 -0.58911,-1.17823 -1.17823,-2.35646 -1.76734,-3.53469 -1.91463,2.94558 -3.53469,5.74387 -4.56564,8.10033 -0.88368,2.06191 -2.20919,4.12381 -3.82925,6.03843 z"
           id="path4179" />
        <path
           style="fill:#eaceba"
           inkscape:connector-curvature="0"
           d="m -420.95096,417.96109 14.28605,24.74284 c 0,0 11.92958,-3.68197 1.03095,-26.51019 -1.03095,-2.35646 -2.35646,-5.00747 -3.97653,-7.95305 -3.53469,3.09286 -7.36394,6.33299 -11.34047,9.7204 z"
           id="path4181" />
        <path
           style="fill:#eaceba"
           inkscape:connector-curvature="0"
           d="m -446.28291,436.22366 12.5187,38.58704 c 0,0 12.37142,-1.17823 6.48027,-25.77379 -1.17823,-5.15475 -3.24014,-12.07686 -5.44932,-19.88263 -4.8602,4.27108 -9.57312,6.33299 -13.54965,7.06938 z"
           id="path4183" />
        <path
           style="fill:#6c4927"
           inkscape:connector-curvature="0"
           d="m -438.62441,298.66528 55.81866,96.90944 c 0,0 11.92958,-3.68197 1.03095,-26.51018 -10.89863,-22.82822 -45.65642,-81.73973 -45.65642,-81.73973 l -6.33299,1.76735 -4.8602,9.57312 z"
           id="path4185" />
        <path
           style="fill:#6e4a28"
           inkscape:connector-curvature="0"
           d="m -423.89653,293.21596 55.81866,96.90944 c 0,0 11.92958,-3.68197 1.03095,-26.51018 -10.89863,-22.82821 -45.65642,-81.73972 -45.65642,-81.73972 l -6.33299,1.76734 -4.8602,9.57312 z"
           id="path4187" />
        <path
           style="fill:#513416"
           inkscape:connector-curvature="0"
           d="m -401.95199,284.52652 38.43976,105.00977 c 0,0 31.37038,-25.62651 24.59555,-49.92751 -6.77482,-24.301 -7.06938,-42.71085 -7.06938,-42.71085 l -49.48567,-21.06086 -6.48026,8.68945 z"
           id="path4189" />
        <path
           style="fill:#531516"
           inkscape:connector-curvature="0"
           d="m -466.75466,368.76998 c 2.94558,7.95305 27.39386,73.63939 34.31596,103.09514 1.91462,-3.24013 3.68197,-8.39489 2.7983,-16.20066 -1.62007,-16.05339 -27.54114,-85.56897 -30.92855,-94.4057 1.32551,-0.73639 2.94558,-0.73639 4.56564,-1.32551 0.7364,-0.29456 1.91463,0.73639 2.65102,0.29456 2.94558,7.6585 28.86664,77.32136 30.78127,94.55298 2.0619,19.73535 -9.57312,26.95201 -10.01496,27.24657 l -4.41836,2.7983 -0.88368,-5.15476 c -3.53469,-22.09182 -29.75031,-93.6693 -34.75779,-107.07167 2.20918,-0.7364 4.27109,-2.35646 5.89115,-3.82925 z"
           id="path4191" />
        <path
           style="fill:#531516"
           inkscape:connector-curvature="0"
           d="m -449.37576,355.95672 c 0,0 0,0 0,0 11.63502,21.50271 32.99045,62.15165 41.38534,83.50707 1.47278,-3.38741 2.35646,-8.83672 0.44183,-16.34794 -2.94557,-11.63503 -22.97549,-50.07479 -34.90507,-72.1666 0.58912,-0.29456 1.03095,-0.44184 1.62007,-0.7364 1.47279,-0.88367 2.50374,-1.91462 3.68197,-3.09285 0.14728,-0.14728 0.29456,-0.29456 0.44183,-0.44184 11.92959,22.09182 32.84317,62.00437 36.08331,74.67034 4.8602,19.14624 -5.5966,28.13025 -6.03843,28.42481 l -3.97653,3.38741 -1.62007,-5.00748 c -5.30203,-17.23162 -29.89759,-64.21355 -42.85812,-88.21999 2.0619,-1.03095 3.97652,-2.35646 5.74387,-3.97653 z"
           id="path4193" />
        <path
           style="fill:#531516"
           inkscape:connector-curvature="0"
           d="m -393.11527,382.76146 c 0.14728,1.91463 0.29456,3.82925 0.58912,5.74387 -7.21666,-12.66597 -25.33195,-42.85812 -31.2231,-52.7258 0.58911,-0.29456 1.03095,-0.58911 1.47279,-0.88367 1.3255,-1.03095 2.35646,-2.0619 3.38741,-3.24013 0.14728,-0.14728 0.29455,-0.29456 0.44183,-0.44184 4.27109,7.21666 19.88264,33.13772 25.33195,42.56357 -0.14728,2.94557 -0.14728,5.89115 0,8.984 z"
           id="path4195" />
        <path
           style="fill:#531516"
           inkscape:connector-curvature="0"
           d="m -429.19857,341.5234 c 12.66598,21.35543 28.71936,49.19112 36.0833,65.53906 0.44184,-1.32551 3.97653,-9.57312 4.12381,-11.34047 1.76734,2.50374 2.35646,8.24762 4.27108,10.60408 -1.76734,4.8602 -6.33298,10.75135 -6.62754,10.89863 l -3.82925,3.53469 -1.76734,-4.8602 c -5.00748,-13.69693 -23.56461,-45.95098 -37.99793,-70.25198 2.20918,-1.03095 4.12381,-2.35646 5.74387,-4.12381 z"
           id="path4197" />
        <path
           style="fill:#531516"
           inkscape:connector-curvature="0"
           d="m -394.58805,348.88734 c -2.35646,-4.41836 -10.60408,-18.7044 -12.81326,-22.68093 2.0619,-1.03095 4.27109,-2.0619 6.33299,-3.09285 2.0619,3.82924 8.10033,14.28604 10.30951,18.40984 -2.20918,0.58912 -2.0619,5.5966 -3.82924,7.36394 z"
           id="path4199" />
        <path
           style="fill:#531516"
           inkscape:connector-curvature="0"
           d="m -385.75133,333.27579 c -3.38741,-5.74387 -6.62754,-11.48774 -9.7204,-16.6425 2.06191,-1.03095 4.12381,-2.20918 6.18571,-3.24013 3.68197,6.18571 7.6585,12.96053 11.63503,19.88263 0,0.29456 -0.14728,0.44184 -0.14728,0.7364 -2.35646,-0.14728 -5.15476,-0.44184 -7.95306,-0.7364 z"
           id="path4201" />
        <path
           style="fill:#531516"
           inkscape:connector-curvature="0"
           d="m -369.40338,330.62477 c -3.53469,-5.59659 -11.63503,-17.67345 -14.87516,-22.68093 2.0619,-1.17823 3.97653,-2.35646 6.03843,-3.53469 3.82925,5.89115 8.24761,12.66598 12.5187,19.29352 0,0.29456 4.41836,6.9221 4.27108,7.21666 -2.35646,0.14728 -5.00748,-0.14728 -7.95305,-0.29456 z"
           id="path4203" />
        <path
           style="fill:#531516"
           inkscape:connector-curvature="0"
           d="m -352.46632,329.88838 c -3.68197,-5.59659 -12.37142,-20.76631 -15.75883,-25.77379 2.0619,-1.17823 3.97652,-2.50374 6.03843,-3.68197 3.97652,5.89116 8.54217,12.37142 12.96053,18.99897 0,0.29455 4.56564,6.9221 4.41836,7.06938 -2.50374,0.14728 -4.8602,3.38741 -7.65849,3.38741 z"
           id="path4205" />
        <path
           style="fill:#ffffff;stroke:#531516;stroke-width:5.22751331;stroke-linecap:round;stroke-miterlimit:10"
           inkscape:connector-curvature="0"
           stroke-miterlimit="10"
           d="m -445.39923,355.07305 c 0,0 5.74387,11.48775 9.27856,16.6425"
           id="path4207" />
        <path
           style="fill:#7f4912"
           inkscape:connector-curvature="0"
           d="m -454.97235,199.2521 c 0,0 -16.49523,15.16972 -17.67346,22.82821 -1.17823,7.6585 -27.09929,74.81762 -4.1238,151.40259 0,0 8.68944,-9.57312 13.69692,-14.5806 0,0 8.39489,3.68197 17.82074,-7.21666 0,0 14.43332,-8.24761 18.26256,-15.31699 0,0 9.7204,-0.7364 15.46428,-10.75135 0,0 9.57312,-0.29456 15.9061,-7.51122 0,0 9.86768,-5.30204 14.43332,-13.54965 0,0 25.62651,-2.20918 29.60304,-8.68945 1.17823,-1.91462 -7.6585,-6.77482 -11.7823,-15.31699 -9.7204,-20.17719 -21.79726,-52.13669 -21.79726,-52.13669 0,0 -20.61903,2.35646 -28.42481,-7.21666 0,0 -6.03843,-6.18571 -7.51121,-11.7823 0,0 -9.7204,-5.30204 -10.01496,-10.16224 l -14.28604,-7.21666 -9.57312,7.21666 z"
           id="path4209" />
        <path
           style="fill:#7f4912"
           inkscape:connector-curvature="0"
           d="m -182.35933,199.2521 c 0,0 16.49522,15.16972 17.67345,22.82821 1.17823,7.6585 26.3629,74.81762 3.53469,151.40259 0,0 -8.10033,-9.57312 -12.96053,-14.5806 0,0 -8.39489,3.68197 -17.82073,-7.21666 0,0 -14.43332,-8.24761 -18.26257,-15.31699 0,0 -9.7204,-0.7364 -15.46427,-10.75135 0,0 -9.57312,-0.29456 -15.90611,-7.51122 0,0 -9.86768,-5.30204 -14.43332,-13.54965 0,0 -13.40237,-1.76735 -17.3789,-8.24761 -1.91462,-3.24014 -0.73639,-24.44828 5.00748,-40.50167 5.89115,-16.34794 16.34794,-27.68841 16.34794,-27.68841 0,0 20.61903,2.35646 28.42481,-7.21666 0,0 6.03843,-6.18571 7.51122,-11.7823 0,0 9.7204,-5.30204 10.01495,-10.16224 l 14.28605,-7.21666 9.42584,7.51122 z"
           id="path4211" />
        <path
           style="fill:#5c3200"
           inkscape:connector-curvature="0"
           d="m -270.13749,258.60545 c 0,0 6.92211,1.03095 10.01496,3.68197 0,0 8.24761,-1.76735 9.27857,3.53469 1.03095,5.30204 4.56564,-17.3789 4.56564,-17.3789 0,0 8.68945,-0.44183 11.48774,9.7204 0,0 3.09286,-19.88263 13.99149,-13.54964 0,0 6.33298,-19.14625 15.9061,1.17823 0,0 -0.88367,-35.64147 10.60408,-15.16972 0,0 3.24013,-22.38637 13.99148,-7.36394 0,0 12.96053,-0.14728 20.17719,16.64251 0,0 -4.71292,-29.30848 -19.4408,-38.58705 -14.72787,-9.27856 -23.71188,-8.10033 -23.71188,-8.10033 l -25.47923,9.57312 c 0,0 -31.66494,36.67242 -32.10677,38.14521 -0.44184,1.32551 -9.27857,17.67345 -9.27857,17.67345 z"
           id="path4213" />
        <path
           style="fill:#5c3200"
           inkscape:connector-curvature="0"
           d="m -369.40338,258.60545 c 0,0 -6.92211,1.03095 -10.01496,3.68197 0,0 -8.24761,-1.76735 -9.27856,3.53469 -1.03095,5.30204 -4.56565,-17.3789 -4.56565,-17.3789 0,0 -8.54216,-23.71188 -11.48774,9.7204 0,0 -6.48027,-41.67989 -13.99148,-13.54964 0,0 2.65101,-48.89656 -16.20067,9.42584 0,0 19.29352,-85.42169 -13.54965,-12.5187 0,0 12.81326,-42.12173 0.29456,-36.0833 0,0 -24.15372,17.52618 -31.37038,34.31596 0,0 4.71292,-29.30848 19.4408,-38.58704 14.72788,-9.27857 20.91359,-10.89863 20.91359,-10.89863 l 28.27752,12.37141 c 0,0 31.66494,36.67242 32.10678,38.14521 0.58911,1.47279 9.42584,17.82073 9.42584,17.82073 z"
           id="path4215" />
        <path
           style="fill:none;stroke:#531516;stroke-width:6.31339931;stroke-linecap:round;stroke-miterlimit:10"
           inkscape:connector-curvature="0"
           stroke-miterlimit="10"
           d="m -176.3209,354.92577 c 0,0 10.45679,-29.75031 8.68945,-76.43768 -1.76735,-45.06731 -27.39386,-85.56898 -27.39386,-85.56898"
           id="path4217" />
        <path
           style="fill:#995a1e"
           inkscape:connector-curvature="0"
           d="m -282.21435,237.25003 c 0,0 33.28501,-16.93706 32.69589,-36.23058 -0.58911,-19.29352 0.29456,-57.43873 29.01392,-45.65642 28.71937,11.7823 49.63295,48.45471 49.63295,48.45471 0,0 -21.5027,-9.42584 -24.74283,-13.54964 -3.24014,-4.12381 -11.19319,6.62754 -11.19319,6.62754 0,0 -2.7983,9.57312 -8.68945,10.30952 -5.74387,0.73639 -0.44183,13.40237 -9.57312,13.8442 -9.13128,0.44184 -5.44931,12.5187 -12.22414,12.37142 -6.77482,-0.14728 -6.62754,8.83673 -12.66597,8.83673 -6.03843,0 -11.48775,10.60407 -19.29352,10.60407 -7.80578,0 -12.96054,-15.61155 -12.96054,-15.61155 z"
           id="path4219" />
        <path
           style="fill:#995a1e"
           inkscape:connector-curvature="0"
           d="m -356.59013,237.25003 c 0,0 -33.285,-16.93706 -32.69589,-36.23058 0.58912,-19.29352 -0.29456,-57.43873 -29.01392,-45.65642 -28.71936,11.7823 -47.57104,45.65642 -47.57104,45.65642 0,0 19.4408,-6.48027 22.68093,-10.60407 3.24013,-4.12381 11.19319,6.62754 11.19319,6.62754 0,0 2.79829,9.57312 8.68944,10.30951 5.74388,0.7364 1.91463,10.16224 11.04591,10.60408 9.13129,0.44183 3.82925,15.75883 10.60407,15.61155 6.77483,-0.14728 6.62755,8.83672 12.66598,8.83672 6.03843,0 3.97653,11.48775 11.92958,11.48775 7.80578,0 20.47175,-16.6425 20.47175,-16.6425 z"
           id="path4221" />
        <path
           style="fill:#74430d"
           inkscape:connector-curvature="0"
           d="m -363.21767,280.25543 c 0,0 1.76734,16.20067 16.20066,20.91359 l 6.77483,24.44828 c 0,0 8.10033,3.09285 10.30951,5.00747 2.20918,1.91463 46.54009,-1.03095 46.54009,-1.03095 0,0 14.87516,-62.59348 11.63503,-79.0887 -3.24013,-16.49523 -16.20067,-41.38534 -33.28501,-40.9435 0,0 9.86768,44.77275 -12.07686,60.82613 -22.09181,16.05339 -25.92106,2.94558 -25.92106,2.94558 0,0 -9.7204,9.86768 -20.17719,6.9221 z"
           id="path4223" />
        <path
           style="fill:#dea333"
           inkscape:connector-curvature="0"
           d="m -356.73741,233.2735 c 0,0 -8.984,2.50374 -10.60407,3.24013 -1.47279,0.7364 -2.7983,-5.44931 -4.12381,-5.44931 -1.3255,0 -2.35646,1.03095 -6.77482,-1.62007 -4.41836,-2.65102 -2.7983,-7.21666 -2.7983,-7.21666 0,0 -7.65849,-2.0619 -8.68944,-3.68197 -1.03096,-1.62006 0,-12.81325 0,-12.81325 0,0 -4.12381,-8.24761 -11.19319,-3.24013 -2.20918,1.47278 6.48026,-13.69693 7.36394,-21.20815 0.88367,-7.51122 -15.46427,0.88367 -16.49523,-2.20918 -1.03095,-3.09286 1.47279,-10.89863 0.58912,-12.37142 -1.17823,-1.62006 -8.54217,3.09286 -11.19319,3.68197 -2.65102,0.58912 -1.03095,-8.10033 -1.03095,-8.10033 0,0 -20.76631,10.89863 -24.59556,14.43332 -3.82924,3.53469 7.21666,-11.04591 7.21666,-11.04591 0,0 17.82074,-13.54965 32.10678,-11.48774 14.28604,2.0619 20.17719,13.25509 19.88263,22.82821 -0.44183,9.7204 -3.53469,26.51018 4.41837,35.19962 7.65849,8.83673 18.85168,19.88264 25.92106,21.06087 z"
           id="path4225" />
        <path
           style="fill:none;stroke:#531516;stroke-width:6.31339931;stroke-linecap:round;stroke-miterlimit:10"
           inkscape:connector-curvature="0"
           stroke-miterlimit="10"
           d="m -389.72785,243.28846 c -2.35647,20.61903 4.41836,42.41629 8.984,57.586"
           id="path4227" />
        <path
           style="fill:#531516"
           inkscape:connector-curvature="0"
           d="m -432.58598,181.13681 -2.0619,2.65102 c -1.17823,1.62007 -1.17823,4.12381 0.29456,5.44931 1.76734,1.62007 4.41836,1.32551 5.89115,-0.58911 l 2.20918,-2.94558 c 1.03095,-1.47278 3.09285,-1.62006 4.41836,-0.58911 l 0,0 c 1.47279,1.03095 1.62007,3.09285 0.58912,4.41836 l -1.91463,2.65102 c -3.09285,4.12381 -8.984,5.74387 -13.54965,3.09285 -5.44931,-3.09285 -6.9221,-10.30951 -3.24013,-15.16971 l 2.20918,-2.94558 c 1.03095,-1.47278 3.09286,-1.62006 4.41837,-0.58911 l 0,0 c 1.47278,1.17823 1.76734,3.09285 0.73639,4.56564 z"
           id="path4229" />
        <path
           style="fill:#531516"
           inkscape:connector-curvature="0"
           d="m -423.4547,193.06639 -2.0619,2.65102 c -1.17823,1.62007 -1.17823,4.12381 0.44184,5.59659 1.76734,1.62007 4.56564,1.47279 6.03843,-0.44183 l 2.20918,-2.94558 c 1.03095,-1.47278 3.09285,-1.62006 4.56564,-0.58911 l 0,0 c 1.47279,1.03095 1.76735,3.09285 0.7364,4.56564 l -1.91463,2.65102 c -3.09285,4.1238 -8.984,5.59659 -13.69692,2.94557 -5.74388,-3.24013 -7.21666,-10.45679 -3.5347,-15.46427 l 2.20919,-2.94557 c 1.03095,-1.47279 3.09285,-1.62007 4.56564,-0.58912 l 0,0 c 1.03095,1.03095 1.47279,3.09286 0.44183,4.56564 z"
           id="path4231" />
        <path
           style="fill:#531516"
           inkscape:connector-curvature="0"
           d="m -413.88157,204.55414 -2.06191,2.65102 c -1.17823,1.62006 -1.17823,4.1238 0.29456,5.44931 1.76735,1.62007 4.41836,1.32551 5.89115,-0.58911 l 2.20918,-2.94558 c 1.03095,-1.47279 3.09286,-1.62007 4.41837,-0.58911 l 0,0 c 1.47278,1.03095 1.62006,3.09285 0.58911,4.41836 l -1.91462,2.65102 c -3.09286,4.1238 -8.98401,5.74387 -13.54965,3.09285 -5.44932,-3.09285 -6.9221,-10.30951 -3.24013,-15.16971 l 2.20918,-2.94558 c 1.03095,-1.47279 3.09285,-1.62007 4.41836,-0.58911 l 0,0 c 1.47279,1.17823 1.76735,3.24013 0.7364,4.56564 z"
           id="path4233" />
        <path
           style="fill:#531516"
           inkscape:connector-curvature="0"
           d="m -410.1996,185.26062 -2.06191,2.65102 c -1.17823,1.62006 -1.17823,4.1238 0.29456,5.44931 1.76735,1.62007 4.41836,1.32551 5.89115,-0.58911 l 2.20918,-2.94558 c 1.03095,-1.47279 3.09286,-1.62007 4.41837,-0.58912 l 0,0 c 1.47278,1.03096 1.62006,3.09286 0.58911,4.41837 l -1.91462,2.65102 c -3.09286,4.1238 -8.98401,5.74387 -13.54965,3.09285 -5.44932,-3.09285 -6.9221,-10.30951 -3.24013,-15.16971 l 2.20918,-2.94558 c 1.03095,-1.47279 3.09285,-1.62007 4.41836,-0.58911 l 0,0 c 1.62007,1.17823 1.91463,3.24013 0.7364,4.56564 z"
           id="path4235" />
        <line
           style="fill:#d4c8b7"
           x1="-349.22617"
           y1="269.50409"
           x2="-335.23468"
           y2="276.72073"
           id="line4237" />
        <path
           style="fill:#531516"
           inkscape:connector-curvature="0"
           d="m -419.47817,174.06743 -2.0619,2.65102 c -1.17823,1.62007 -1.17823,4.1238 0.29456,5.44931 1.76734,1.62007 4.41836,1.32551 5.89115,-0.58911 l 2.20918,-2.94558 c 1.03095,-1.47279 3.09285,-1.62006 4.41836,-0.58911 l 0,0 c 1.47279,1.03095 1.62007,3.09285 0.58912,4.41836 l -1.91463,2.65102 c -3.09285,4.1238 -8.984,5.74387 -13.54964,3.09285 -5.44932,-3.09285 -6.92211,-10.30951 -3.24014,-15.16971 l 2.20918,-2.94558 c 1.03096,-1.47278 3.09286,-1.62006 4.41837,-0.58911 l 0,0 c 1.47279,1.17823 1.76734,3.09285 0.73639,4.56564 z"
           id="path4239" />
        <path
           style="fill:#531516"
           inkscape:connector-curvature="0"
           d="m -405.19213,166.85077 -2.0619,2.65102 c -1.17823,1.62006 -1.17823,4.1238 0.29456,5.44931 1.76734,1.62007 4.41836,1.32551 5.89115,-0.58911 l 2.20918,-2.94558 c 1.03095,-1.47279 3.09286,-1.62006 4.41836,-0.58911 l 0,0 c 1.47279,1.03095 1.62007,3.09285 0.58912,4.41836 l -1.91462,2.65102 c -3.09286,4.1238 -8.98401,5.74387 -13.54965,3.09285 -5.44932,-3.09285 -6.9221,-10.30951 -3.24014,-15.16971 l 2.20919,-2.94558 c 1.03095,-1.47278 3.09285,-1.62006 4.41836,-0.58911 l 0,0 c 1.62007,1.17823 1.91462,3.09285 0.73639,4.56564 z"
           id="path4241" />
        <path
           style="fill:none;stroke:#531516;stroke-width:6.31339931;stroke-linecap:round;stroke-miterlimit:10"
           inkscape:connector-curvature="0"
           stroke-miterlimit="10"
           d="m -350.25714,234.59901 c -1.76735,0 -31.37038,-5.15476 -36.0833,-31.9595 -4.71292,-26.80473 5.15475,-52.87308 -29.60304,-48.74927 -32.99044,3.82925 -78.20503,69.07375 -70.39925,167.01413 0.88367,10.75136 6.1857,53.75676 10.16223,52.57853 7.36394,-2.20918 14.5806,-17.82073 14.5806,-17.82073 0.58912,1.91462 2.35646,4.8602 5.74387,5.00747 3.82925,0.14728 9.27857,-4.86019 12.37142,-13.54964 0,0 2.65102,3.24013 7.06938,1.03095 2.94558,-1.47279 6.33299,-4.8602 8.98401,-11.48775 0,0 9.42584,2.35646 15.46427,-10.75135 0,0 13.10781,2.65102 17.08434,-10.75135 0,0 7.21666,5.00748 13.69692,-11.63502 0,0 8.24762,2.65102 16.20067,-4.56564 0,0 5.74387,2.65101 15.16971,-3.53469"
           id="path4243" />
        <path
           inkscape:connector-curvature="0"
           d="m -391.4952,229.73881 -2.0619,2.7983 c -1.32551,1.62006 -1.32551,4.1238 0.29455,5.59659 1.76735,1.62007 4.56565,1.47279 6.03843,-0.44184 l 2.20919,-2.94557 c 1.03095,-1.47279 3.09285,-1.76735 4.56564,-0.58912 l 0,0 c 1.47279,1.03095 1.76734,3.09286 0.58911,4.56565 l -2.0619,2.65101 c -3.24013,4.27109 -9.27856,5.74388 -13.8442,3.09286 -5.5966,-3.24014 -6.92211,-10.60407 -3.09286,-15.61155 l 2.20918,-2.94558 c 1.03095,-1.47279 3.09286,-1.76734 4.56564,-0.58911 l 0,0 c 1.47279,0.88367 1.62007,2.94557 0.58912,4.41836 z"
           id="path4245" />
        <path
           inkscape:connector-curvature="0"
           d="m -376.32549,226.3514 -2.0619,2.79829 c -1.32551,1.62007 -1.32551,4.12381 0.29456,5.5966 1.76734,1.62006 4.56564,1.47279 6.03843,-0.44184 l 2.20918,-2.94557 c 1.03095,-1.47279 3.09286,-1.76735 4.56564,-0.58912 l 0,0 c 1.47279,1.03095 1.76735,3.09286 0.58912,4.56564 l -2.0619,2.65102 c -3.24014,4.27109 -9.27857,5.74387 -13.84421,3.09286 -5.59659,-3.24014 -6.9221,-10.60408 -3.09285,-15.61156 l 2.20918,-2.94557 c 1.03095,-1.47279 3.09285,-1.76735 4.56564,-0.58912 l 0,0 c 1.32551,1.03096 1.62007,3.09286 0.58911,4.41837 z"
           id="path4247" />
        <path
           style="fill:#531516"
           inkscape:connector-curvature="0"
           d="m -375.73637,240.932 -2.20918,2.94557 c -1.32551,1.76735 -1.32551,4.41837 0.29456,6.03843 1.91462,1.76735 4.8602,1.47279 6.48026,-0.58911 l 2.50374,-3.24014 c 1.17823,-1.47278 3.38741,-1.76734 4.8602,-0.58911 l 0,0 c 1.47279,1.17823 1.76735,3.38741 0.58912,4.8602 l -2.20919,2.94557 c -3.53469,4.56565 -10.01495,6.18571 -15.02243,3.24014 -6.03843,-3.53469 -7.51122,-11.48775 -3.38741,-16.78978 l 2.50374,-3.24014 c 1.17823,-1.47278 3.38741,-1.76734 4.8602,-0.58911 l 0,0 c 1.62006,1.32551 1.91462,3.38741 0.73639,5.00748 z"
           id="path4249" />
        <path
           style="fill:#531516"
           inkscape:connector-curvature="0"
           d="m -401.06832,216.92556 -2.20918,2.94557 c -1.32551,1.76735 -1.32551,4.27109 0.29456,5.89115 1.91462,1.76735 4.71292,1.47279 6.1857,-0.44183 l 2.35646,-3.09286 c 1.17823,-1.47279 3.24014,-1.76734 4.71293,-0.58911 l 0,0 c 1.47278,1.17823 1.76734,3.24013 0.58911,4.71292 l -2.0619,2.79829 c -3.38741,4.41837 -9.57312,5.89116 -14.43332,3.09286 -5.89115,-3.38741 -7.21666,-11.04591 -3.24014,-16.20067 l 2.35646,-3.09285 c 1.17823,-1.47279 3.24014,-1.76735 4.71293,-0.58912 l 0,0 c 1.62006,1.03095 1.91462,3.09286 0.73639,4.56565 z"
           id="path4251" />
        <path
           style="fill:#531516"
           inkscape:connector-curvature="0"
           d="m -400.03737,196.01197 -2.20918,2.94557 c -1.32551,1.76735 -1.32551,4.41837 0.29456,5.89116 1.91462,1.76734 4.71292,1.47278 6.33298,-0.58912 l 2.35646,-3.09285 c 1.17823,-1.47279 3.24014,-1.76735 4.71293,-0.7364 l 0,0 c 1.47278,1.17823 1.76734,3.24014 0.58911,4.71292 l -2.20918,2.7983 c -3.38741,4.41836 -9.57312,6.03843 -14.43332,3.24013 -5.89115,-3.38741 -7.21666,-11.04591 -3.09286,-16.20066 l 2.35646,-3.09286 c 1.17824,-1.47278 3.24014,-1.76734 4.71293,-0.73639 l 0,0 c 1.47278,1.17823 1.76734,3.24013 0.58911,4.8602 z"
           id="path4253" />
        <path
           style="fill:none;stroke:#531516;stroke-width:6.31339931;stroke-linecap:round;stroke-miterlimit:10"
           inkscape:connector-curvature="0"
           stroke-miterlimit="10"
           d="m -442.89549,189.38442 c 0,0 -14.13877,2.65102 -29.45576,29.30848"
           id="path4255" />
        <path
           style="fill:none;stroke:#531516;stroke-width:6.31339931;stroke-linecap:round;stroke-miterlimit:10"
           inkscape:connector-curvature="0"
           stroke-miterlimit="10"
           d="m -443.19005,192.91911 c 0,0 -25.62651,40.50167 -27.39385,85.56898 -1.76735,46.68737 8.68944,76.43768 8.68944,76.43768"
           id="path4257" />
        <path
           style="fill:none;stroke:#531516;stroke-width:6.31339931;stroke-linecap:round;stroke-miterlimit:10"
           inkscape:connector-curvature="0"
           stroke-miterlimit="10"
           d="m -431.40775,202.93407 c -28.13025,41.09078 -26.95202,99.70774 -11.92958,145.95327"
           id="path4259" />
        <path
           style="fill:none;stroke:#531516;stroke-width:6.31339931;stroke-linecap:round;stroke-miterlimit:10"
           inkscape:connector-curvature="0"
           stroke-miterlimit="10"
           d="m -420.6564,212.65447 c -20.02991,40.35439 -20.91359,84.83258 -7.21666,124.15601"
           id="path4261" />
        <path
           style="fill:none;stroke:#531516;stroke-width:6.31339931;stroke-linecap:round;stroke-miterlimit:10"
           inkscape:connector-curvature="0"
           stroke-miterlimit="10"
           d="m -411.23056,219.13474 c -15.46427,37.55609 -10.45679,72.90299 0,107.07167"
           id="path4263" />
        <path
           style="fill:none;stroke:#531516;stroke-width:6.31339931;stroke-linecap:round;stroke-miterlimit:10"
           inkscape:connector-curvature="0"
           stroke-miterlimit="10"
           d="m -401.95199,230.4752 c -5.15476,28.71937 -1.62007,55.5241 6.62754,83.35979"
           id="path4265" />
        <path
           style="fill:none;stroke:#531516;stroke-width:6.31339931;stroke-linecap:round;stroke-miterlimit:10"
           inkscape:connector-curvature="0"
           stroke-miterlimit="10"
           d="m -376.17821,250.79967 c 1.03095,13.54965 6.77483,35.64147 12.37142,47.86561"
           id="path4267" />
        <path
           style="fill:#ffffff;stroke:#531516;stroke-width:5.22751331;stroke-linecap:round;stroke-miterlimit:10"
           inkscape:connector-curvature="0"
           stroke-miterlimit="10"
           d="m -445.39923,296.01426 c 0,0 1.32551,12.66598 2.79829,18.85168"
           id="path4269" />
        <path
           style="fill:#ffffff;stroke:#531516;stroke-width:5.22751331;stroke-linecap:round;stroke-miterlimit:10"
           inkscape:connector-curvature="0"
           stroke-miterlimit="10"
           d="m -477.21145,332.24484 c 0,0 1.32551,12.66598 2.7983,18.85168"
           id="path4271" />
        <path
           style="fill:#dea333"
           inkscape:connector-curvature="0"
           d="m -356.59013,278.78264 c 0,0 5.89115,12.5187 15.02244,9.7204 l 10.01495,10.75135 c 0,0 0.58912,7.51122 2.65102,20.47175 l 0.58912,7.6585 -10.30952,-0.29456 -8.83672,-26.51018 c 0,0 -17.08434,-13.25509 -17.82074,-20.47175 -0.73639,-7.36394 8.68945,-1.32551 8.68945,-1.32551 z"
           id="path4273" />
        <path
           style="fill:#c0aca3"
           inkscape:connector-curvature="0"
           d="m -246.4256,372.7465 c 0,0.14728 -0.14728,0.29456 -0.14728,0.44184 0,1.62007 -0.14728,3.38741 -0.44184,5.00748 -0.29455,1.62007 -0.58911,3.38741 -0.88367,5.00748 -0.44184,1.76734 -0.88367,3.53469 -1.32551,5.30203 -0.44183,1.62007 -1.03095,3.38742 -1.62007,5.00748 -0.73639,2.06191 -1.47278,3.97653 -2.35646,5.89115 -0.88367,1.91463 -1.76734,3.68197 -2.65101,5.5966 -1.03095,2.0619 -2.06191,3.97652 -3.24014,6.03843 -1.47278,2.35646 -2.94557,4.8602 -4.56564,7.21666 -1.76734,2.50374 -3.53469,5.00748 -5.30203,7.36394 -1.62007,2.20918 -3.38742,4.27108 -5.15476,6.48026 -3.38741,4.12381 -7.21666,8.10034 -10.89863,11.92958 -2.50374,2.65102 -5.30204,5.15476 -7.95306,7.51122 -2.20918,1.91463 -4.27108,3.82925 -6.48026,5.5966 -4.71292,3.82924 -9.42584,7.51121 -14.5806,10.75135 -1.32551,0.88367 -2.65102,1.62006 -4.12381,2.20918 -0.44183,0 -0.73639,0 -1.17823,0 l -0.14728,0 c -2.0619,-1.03095 -4.1238,-2.20918 -6.03843,-3.68197 -6.18571,-4.27109 -11.92958,-8.83673 -17.52617,-13.84421 -4.27109,-3.82924 -8.39489,-7.80577 -12.37142,-11.92958 -2.7983,-2.79829 -5.44931,-5.74387 -7.95305,-8.83672 -2.35646,-2.7983 -4.71292,-5.74388 -6.92211,-8.68945 -1.76734,-2.35646 -3.38741,-4.8602 -5.00747,-7.36394 -1.91463,-2.94558 -3.68197,-6.03843 -5.44932,-9.13129 -1.17823,-2.20918 -2.35646,-4.56564 -3.38741,-6.77482 -1.03095,-2.20918 -1.91463,-4.56564 -2.7983,-6.77482 -0.58911,-1.76735 -1.17823,-3.53469 -1.76734,-5.30204 -0.58912,-1.91462 -1.03095,-3.82925 -1.47279,-5.89115 -0.44184,-2.20918 -0.73639,-4.27109 -1.03095,-6.48027 -0.14728,-0.73639 -0.14728,-1.47278 -0.14728,-2.20918 0,-0.44184 -0.14728,-0.88367 -0.29456,-1.32551 l 0,-28.13024 c 0,-5.89116 4.8602,-10.75136 10.75135,-10.75136 l 123.86146,0 c 5.89115,0 10.75135,4.8602 10.75135,10.75136 l 0,29.01391 z"
           id="path4275" />
        <path
           style="fill:#94571c"
           inkscape:connector-curvature="0"
           d="m -300.62419,316.78057 c -0.29456,2.50374 -1.32551,6.77482 -3.53469,9.42584 -3.38742,3.97653 -21.64998,5.89115 -21.64998,5.89115 l -10.01496,-40.50166 c 0,0 -21.35542,-4.71292 -27.83569,-13.69693 0,0 13.8442,2.65102 17.52617,-3.24013 3.68197,-5.89115 14.28605,5.59659 19.73536,5.59659 2.94558,0 8.10033,-4.8602 12.22414,-9.42584 -0.88367,2.7983 -1.76735,5.74387 -1.62007,6.62754 0.29456,1.62007 4.41837,-2.65101 4.8602,-2.94557 -0.14728,0.58911 -3.97652,11.63502 -1.62006,15.02243 1.47278,2.06191 4.27108,0 6.33298,-2.0619 0.14728,0.14728 0.14728,0.29456 0.29456,0.29456 -2.20918,3.53469 -4.71292,9.13128 -1.32551,12.96053 0.88367,1.03095 1.32551,1.91463 1.47279,2.7983 -2.65102,-0.29456 -2.20918,3.53469 -1.47279,5.74387 -0.88367,2.20918 -1.47279,4.41836 1.03095,6.9221 1.17823,1.62007 3.24014,1.47279 5.5966,0.58912 z"
           id="path4277" />
        <path
           style="fill:#867063"
           inkscape:connector-curvature="0"
           d="m -254.37866,377.45943 c 0,0.14727 -0.14727,0.29455 -0.14727,0.44183 0,1.62007 -0.14728,3.24014 -0.44184,4.8602 -0.29456,1.62007 -0.44184,3.24014 -0.73639,4.8602 -0.29456,1.76735 -0.7364,3.53469 -1.17823,5.15476 -0.44184,1.62007 -0.88368,3.24013 -1.47279,4.8602 -0.7364,1.91462 -1.32551,3.82925 -2.20918,5.74387 -0.7364,1.76735 -1.47279,3.68197 -2.35646,5.44932 -0.88368,1.91462 -1.91463,3.97652 -2.94558,5.89115 -1.32551,2.35646 -2.65102,4.71292 -4.12381,7.06938 -1.47278,2.50374 -3.09285,4.8602 -4.8602,7.21666 -1.47278,2.20918 -3.09285,4.27108 -4.71292,6.33299 -3.09285,3.97652 -6.48026,7.80577 -9.86768,11.63502 -2.35646,2.50374 -4.71292,5.00748 -7.21666,7.36394 -1.91462,1.91462 -3.82924,3.68197 -5.74387,5.44931 -4.1238,3.82925 -8.54217,7.36394 -13.10781,10.60408 -1.17823,0.88367 -2.50374,1.62006 -3.68197,2.20918 -0.29456,0 -0.73639,0 -1.03095,0 l -0.14728,0 c -1.91462,-1.03095 -3.68197,-2.20918 -5.44931,-3.53469 -5.44932,-4.12381 -10.75135,-8.68945 -15.61155,-13.54965 -3.82925,-3.68197 -7.51122,-7.6585 -11.19319,-11.63502 -2.50374,-2.7983 -4.8602,-5.5966 -7.06938,-8.54217 -2.20919,-2.7983 -4.27109,-5.5966 -6.18571,-8.54217 -1.62007,-2.35646 -3.09286,-4.71292 -4.56564,-7.06938 -1.76735,-2.94558 -3.38742,-5.89116 -4.8602,-8.83673 -1.03096,-2.20918 -2.06191,-4.41836 -2.94558,-6.62755 -0.88367,-2.20918 -1.76735,-4.41836 -2.50374,-6.62754 -0.58911,-1.76735 -1.03095,-3.53469 -1.47279,-5.30204 -0.58911,-1.91462 -0.88367,-3.82925 -1.32551,-5.74387 -0.44183,-2.0619 -0.73639,-4.27108 -0.88367,-6.33299 0,-0.73639 -0.14728,-1.47279 -0.14728,-2.0619 0,-0.44184 -0.14728,-0.88367 -0.14728,-1.32551 l 0,-27.54113 c 0,-5.74387 4.27109,-10.45679 9.57312,-10.45679 l 111.0482,0 c 5.30204,0 9.57313,4.71292 9.57313,10.45679 l 0,28.13025 z"
           id="path4279" />
        <path
           style="fill:#b99a0f"
           inkscape:connector-curvature="0"
           d="m -262.33171,374.51385 c 0,0.14728 -0.14728,0.29456 -0.14728,0.29456 0,1.17823 -0.14728,2.50374 -0.44183,3.68197 -0.14728,1.17823 -0.44184,2.50374 -0.7364,3.68197 -0.29456,1.32551 -0.73639,2.65101 -1.17823,3.82925 -0.44184,1.17823 -0.88367,2.50373 -1.32551,3.68196 -0.58911,1.47279 -1.17823,2.94558 -1.91462,4.27109 -0.7364,1.32551 -1.32551,2.7983 -2.20918,4.1238 -0.88368,1.47279 -1.76735,2.94558 -2.65102,4.41837 -1.17823,1.76734 -2.35646,3.53469 -3.68197,5.30203 -1.32551,1.76735 -2.7983,3.68197 -4.27109,5.44932 -1.32551,1.62007 -2.79829,3.09285 -4.27108,4.71292 -2.7983,3.09285 -5.89115,5.89115 -8.98401,8.83673 -1.91462,1.76734 -3.82924,3.38741 -5.89115,5.00748 -1.91462,1.47278 -3.68197,2.94557 -5.59659,4.41836 -3.82925,2.7983 -7.6585,5.59659 -11.7823,7.95305 -1.03096,0.58912 -2.20919,1.17823 -3.38742,1.62007 -0.29455,0 -0.58911,0 -0.73639,0 -0.44184,-0.14728 -0.73639,-0.29456 -1.17823,-0.44184 -2.0619,-1.03095 -4.12381,-2.20918 -6.03843,-3.38741 -4.27108,-2.7983 -8.24761,-5.74387 -12.07686,-8.83673 -3.53469,-2.79829 -6.77482,-5.74387 -10.01496,-8.68944 -2.20918,-2.06191 -4.27108,-4.27109 -6.33298,-6.33299 -1.91463,-2.0619 -3.82925,-4.12381 -5.5966,-6.33299 -1.47279,-1.76734 -2.79829,-3.53469 -4.1238,-5.30203 -1.62007,-2.20919 -3.09286,-4.41837 -4.41837,-6.62755 -0.88367,-1.62007 -1.91462,-3.24013 -2.65102,-5.00748 -0.88367,-1.62006 -1.62006,-3.24013 -2.20918,-5.00748 -0.58911,-1.32551 -0.88367,-2.65101 -1.32551,-3.97652 -0.44183,-1.32551 -0.88367,-2.7983 -1.17823,-4.27109 -0.29455,-1.62006 -0.58911,-3.09285 -0.73639,-4.71292 0,-0.58911 0,-1.03095 -0.14728,-1.62007 0,-0.29455 -0.14728,-0.58911 -0.14728,-1.03095 l 0,-22.23909 c 0,-3.38742 2.94558,-6.18571 6.48027,-6.18571 l 104.27338,0 c 3.53469,0 6.48026,2.79829 6.48026,6.18571 l 0,22.53365 z"
           id="path4281" />
        <path
           style="fill:#531516"
           inkscape:connector-curvature="0"
           d="m -317.56125,475.10526 -2.94558,-0.14728 -0.88367,-0.44184 c -2.50374,-1.32551 -4.71292,-2.65102 -6.62755,-3.82925 -5.89115,-3.97652 -11.7823,-8.68944 -18.11529,-14.28604 -4.41836,-3.97653 -8.68944,-8.10033 -12.81325,-12.37142 -2.94558,-3.09285 -5.74387,-6.1857 -8.24761,-9.13128 -2.50374,-2.94558 -4.8602,-5.89115 -7.21666,-8.98401 -1.76735,-2.50373 -3.53469,-5.00747 -5.30204,-7.51121 -2.20918,-3.38742 -3.97652,-6.48027 -5.59659,-9.57312 -1.32551,-2.65102 -2.50374,-4.8602 -3.53469,-7.06939 -1.03095,-2.20918 -1.91463,-4.56564 -2.94558,-7.21666 -0.44183,-1.3255 -0.88367,-2.65101 -1.32551,-3.97652 -0.14728,-0.58912 -0.29455,-1.03095 -0.44183,-1.62007 -0.7364,-2.20918 -1.17823,-4.27108 -1.62007,-6.33299 -0.44184,-2.20918 -0.73639,-4.41836 -1.03095,-6.9221 0,-0.44184 0,-0.88367 -0.14728,-1.32551 0,-0.29456 0,-0.58911 0,-0.88367 0,-0.14728 0,-0.44184 -0.14728,-0.58912 l -0.14728,-1.17823 0,-28.4248 c 0,-8.10033 6.62755,-14.72788 14.72788,-14.72788 l 125.48152,0 c 8.10033,0 14.72788,6.62755 14.72788,14.72788 l 0,29.60303 -0.14728,0.44184 c 0,1.91462 -0.29456,3.68197 -0.58911,5.30204 l -0.14728,0.73639 c -0.29456,1.47279 -0.44184,2.94558 -0.88368,4.56564 -0.44183,1.76735 -0.88367,3.53469 -1.47278,5.74387 -0.58912,2.06191 -1.17823,3.82925 -1.76735,5.30204 -0.73639,2.0619 -1.62007,4.12381 -2.50374,6.18571 -0.88367,2.0619 -1.76734,3.97653 -2.7983,5.89115 -1.3255,2.50374 -2.35646,4.41836 -3.53469,6.33299 -1.76734,2.94557 -3.24013,5.30203 -4.71292,7.51122 -1.62006,2.50374 -3.53469,5.00747 -5.59659,7.65849 -1.76735,2.35646 -3.68197,4.56564 -5.44932,6.62755 -3.09285,3.68197 -6.62754,7.51122 -11.34046,12.22414 -2.50374,2.50374 -5.30204,5.15475 -8.24761,7.80577 -2.06191,1.91463 -4.27109,3.82925 -6.62755,5.74387 -5.59659,4.71293 -10.45679,8.24762 -15.16971,11.34047 -1.76735,1.17823 -3.24014,1.91462 -4.8602,2.50374 l 0,0.29456 z m -70.98837,-103.83154 0,0 c 0.14727,0.44183 0.14727,0.88367 0.14727,1.32551 0,0.44183 0,0.88367 0.14728,1.17823 0,0.29455 0,0.58911 0,0.88367 0.29456,2.20918 0.58912,4.27108 0.88368,6.18571 0.29455,1.76734 0.73639,3.68197 1.3255,5.59659 0.14728,0.58912 0.29456,1.17823 0.58912,1.76735 0.29456,1.17823 0.73639,2.35646 1.17823,3.53469 0.88367,2.50374 1.76735,4.71292 2.65102,6.62754 0.88367,2.06191 1.91462,4.27109 3.24013,6.62755 1.47279,2.79829 3.24013,5.74387 5.30204,8.83672 1.62006,2.50374 3.24013,4.8602 5.00748,7.21666 2.20918,2.94558 4.41836,5.89116 6.77482,8.68945 2.35646,2.7983 5.00748,5.74388 7.80578,8.68945 3.97652,4.12381 8.10033,8.10033 12.37141,11.92958 6.03843,5.44932 11.78231,9.86768 17.3789,13.69693 1.47279,1.03095 2.94557,1.91462 4.8602,2.94557 0.73639,-0.44183 1.62007,-0.88367 2.65102,-1.47278 4.41836,-2.7983 8.984,-6.18571 14.43332,-10.60408 2.20918,-1.91462 4.41836,-3.82924 6.48026,-5.59659 2.94558,-2.65102 5.44932,-5.00748 7.95306,-7.51122 4.56564,-4.56564 7.80577,-8.24761 10.89863,-11.7823 1.62006,-2.0619 3.53469,-4.12381 5.15475,-6.48027 1.91463,-2.65101 3.68197,-5.00747 5.30204,-7.36394 1.47279,-2.0619 2.7983,-4.27108 4.56564,-7.06938 1.03095,-1.62006 2.06191,-3.53469 3.24014,-5.89115 0.88367,-1.76734 1.76734,-3.53469 2.65101,-5.44931 0.88368,-1.91463 1.62007,-3.82925 2.35646,-5.74388 0.58912,-1.3255 1.03096,-2.94557 1.62007,-4.86019 0.58912,-1.91463 1.03095,-3.68197 1.32551,-5.15476 0.29456,-1.32551 0.44184,-2.65102 0.73639,-4.12381 l 0.14728,-0.73639 c 0.29456,-1.47279 0.44184,-2.94558 0.44184,-4.41837 0,-0.44183 0,-0.73639 0.14728,-1.03095 l 0,-28.71936 c 0,-3.82925 -3.09286,-7.06938 -7.06938,-7.06938 l -125.48152,0 c -3.82925,0 -7.06939,3.09285 -7.06939,7.06938 l 0,28.27753 z"
           id="path4283" />
        <path
           style="fill:#f7cd4e"
           inkscape:connector-curvature="0"
           d="m -260.12253,384.67609 c 0,0.14727 -0.14728,0.29455 -0.14728,0.29455 0,1.17823 -0.14728,2.50374 -0.44183,3.68197 -0.14728,1.17823 -0.44184,2.50374 -0.7364,3.68197 -0.29455,1.32551 -0.73639,2.65102 -1.17823,3.82925 -0.44183,1.17823 -0.88367,2.50374 -1.32551,3.68197 -0.58911,1.47279 -1.17823,2.94558 -1.91462,4.27108 -0.73639,1.32551 -1.32551,2.7983 -2.20918,4.12381 -0.88367,1.47279 -1.76735,2.94558 -2.65102,4.41836 -1.17823,1.76735 -2.35646,3.53469 -3.68197,5.30204 -1.32551,1.76735 -2.7983,3.68197 -4.27108,5.44932 -1.32551,1.62006 -2.7983,3.09285 -4.27109,4.71292 -2.7983,3.09285 -5.89115,5.89115 -8.984,8.83672 -1.91463,1.76735 -3.82925,3.38741 -5.89116,5.00748 -1.91462,1.47279 -3.68197,2.94558 -5.59659,4.41836 -3.82925,2.7983 -7.6585,5.5966 -11.7823,7.95306 -1.03095,0.58911 -2.20918,1.17823 -3.38741,1.62007 -0.29456,0 -0.58912,0 -0.7364,0 -0.44183,-0.14728 -0.73639,-0.29456 -1.17823,-0.44184 -2.0619,-1.03095 -4.1238,-2.20918 -6.03843,-3.38741 -4.27108,-2.7983 -8.24761,-5.74388 -12.07686,-8.83673 -3.53469,-2.7983 -6.77482,-5.74387 -10.01495,-8.68945 -2.20919,-2.0619 -4.27109,-4.27108 -6.33299,-6.33299 -1.91463,-2.0619 -3.82925,-4.1238 -5.5966,-6.33298 -1.47278,-1.76735 -2.79829,-3.53469 -4.1238,-5.30204 -1.62007,-2.20918 -3.09286,-4.41836 -4.41837,-6.62754 -0.88367,-1.62007 -1.91462,-3.24014 -2.65101,-5.00748 -0.88368,-1.62007 -1.62007,-3.24014 -2.20919,-5.00748 -0.58911,-1.32551 -0.88367,-2.65102 -1.3255,-3.97653 -0.44184,-1.32551 -0.88368,-2.79829 -1.17823,-4.27108 -0.29456,-1.62007 -0.58912,-3.09286 -0.7364,-4.71292 0,-0.58912 0,-1.03095 -0.14728,-1.62007 0,-0.29456 -0.14728,-0.58912 -0.14728,-1.03095 l 0,-22.2391 c 0,-3.38741 2.94558,-6.18571 6.48027,-6.18571 l 104.27338,0 c 3.53469,0 6.48026,2.7983 6.48026,6.18571 l 0,22.53366 z"
           id="path4285" />
        <polygon
           style="fill:#ef4136;stroke:#293d44;stroke-width:1.18309999;stroke-miterlimit:10"
           stroke-miterlimit="10"
           points="261.7,347.3 272.2,359.7 284.6,360 296.8,347.3 "
           id="polygon4287"
           transform="matrix(1.4727878,0,0,1.4727878,-729.5,-79.252071)" />
        <ellipse
           style="fill:#f6e5a8"
           cx="-318.44492"
           cy="405.73694"
           rx="26.952015"
           ry="25.479227"
           id="ellipse4289" />
        <polygon
           style="fill:#379dc1"
           points="247.6,331.8 261.1,345.7 297.4,345.8 310.1,331.8 "
           id="polygon4291"
           transform="matrix(1.4727878,0,0,1.4727878,-729.5,-79.252071)" />
        <path
           style="fill:#531516"
           inkscape:connector-curvature="0"
           d="m -317.56125,457.72636 -2.50374,0 -1.17823,-0.58911 c -0.29456,-0.14728 -0.58912,-0.29456 -1.03095,-0.44184 -2.35646,-1.17823 -4.41837,-2.65102 -6.48027,-3.97653 -4.12381,-2.79829 -8.10033,-6.03843 -12.5187,-9.86768 -3.53469,-3.09285 -6.9221,-6.33298 -10.30951,-9.7204 -2.35646,-2.50373 -4.56564,-4.8602 -6.62755,-7.21666 -1.91462,-2.35646 -3.82924,-4.71292 -5.74387,-7.06938 -1.47279,-1.91462 -2.94557,-3.97652 -4.27108,-6.03843 -1.76735,-2.65102 -3.24014,-5.15475 -4.56564,-7.51121 -1.03096,-2.06191 -2.06191,-3.82925 -2.7983,-5.5966 -0.7364,-1.76734 -1.62007,-3.53469 -2.35646,-5.74387 -0.44184,-1.03095 -0.7364,-2.0619 -1.03095,-3.24013 l -0.44184,-1.32551 c -0.58912,-1.76735 -0.88367,-3.38741 -1.32551,-5.00748 -0.29456,-1.76735 -0.58911,-3.53469 -0.88367,-5.5966 0,-0.29455 0,-0.73639 -0.14728,-1.03095 0,-0.29455 0,-0.44183 0,-0.73639 0,-0.14728 0,-0.29456 0,-0.44184 l -0.14728,-1.03095 0,-24.15372 c 0,-5.89115 4.71292,-10.60407 10.45679,-10.60407 l 104.27338,0 c 5.74387,0 10.45679,4.8602 10.45679,10.60407 l -0.14727,25.62651 c 0,1.47279 -0.29456,2.94558 -0.44184,4.12381 l -0.14728,0.58911 c -0.14728,1.17823 -0.44184,2.35646 -0.58912,3.53469 -0.29455,1.32551 -0.73639,2.7983 -1.17823,4.56564 -0.44183,1.62007 -0.88367,2.94558 -1.47278,4.27109 -0.58912,1.62006 -1.32551,3.24013 -2.06191,4.8602 -0.73639,1.62006 -1.47278,3.24013 -2.20918,4.71292 -1.03095,1.91462 -1.91462,3.53469 -2.79829,5.00748 -1.47279,2.35646 -2.65102,4.1238 -3.82925,5.89115 -1.32551,1.91462 -2.7983,3.97653 -4.41837,6.03843 -1.47278,1.91462 -2.94557,3.68197 -4.27108,5.30203 -2.50374,2.94558 -5.30204,6.03843 -9.13129,9.86768 -1.91462,1.91463 -3.97652,3.82925 -6.03843,5.74388 -1.76734,1.62006 -3.68196,3.24013 -5.74387,5.00747 -4.41836,3.68197 -8.39489,6.48027 -12.22414,8.98401 -1.47278,0.88367 -2.65101,1.47279 -3.97652,2.0619 l -0.14728,0.14728 z m -55.96594,-82.47612 c 0,0.29456 0.14728,0.7364 0.14728,1.03096 0,0.29455 0,0.73639 0.14728,1.03095 0,0.29455 0,0.44183 0,0.73639 0.14728,1.76735 0.44184,3.24013 0.73639,4.71292 0.29456,1.32551 0.58912,2.7983 1.03095,4.27109 0.14728,0.44183 0.29456,0.88367 0.44184,1.32551 0.29456,0.88367 0.58912,1.76734 0.88367,2.65101 0.7364,1.91463 1.47279,3.53469 2.06191,5.15476 0.73639,1.62007 1.62006,3.24013 2.65101,5.15476 1.17823,2.20918 2.50374,4.41836 4.12381,6.9221 1.32551,1.91462 2.65102,3.82925 3.97653,5.59659 1.76734,2.35646 3.53469,4.56565 5.44931,6.77483 1.91463,2.20918 3.97653,4.41836 6.18571,6.77482 3.09286,3.24014 6.48027,6.33299 9.7204,9.27857 4.12381,3.68196 7.95305,6.62754 11.7823,9.42584 1.62007,1.17823 3.38741,2.35646 5.30204,3.38741 0.44183,-0.29456 1.03095,-0.58912 1.62007,-0.88367 3.53469,-2.20919 7.21666,-4.8602 11.34046,-8.24762 1.91463,-1.62006 3.82925,-3.24013 5.59659,-4.71292 2.06191,-1.76734 3.97653,-3.53469 5.74388,-5.30203 3.68197,-3.68197 6.33298,-6.48027 8.68945,-9.27857 1.3255,-1.62006 2.79829,-3.24013 4.1238,-5.00747 1.62007,-2.06191 2.94558,-3.82925 4.27109,-5.74388 1.03095,-1.62006 2.20918,-3.38741 3.53469,-5.44931 0.73639,-1.32551 1.62006,-2.7983 2.50374,-4.56564 0.73639,-1.32551 1.3255,-2.7983 2.0619,-4.27109 0.73639,-1.47279 1.32551,-2.94557 1.91462,-4.41836 0.44184,-1.03095 0.7364,-2.20918 1.17823,-3.68197 0.44184,-1.47279 0.7364,-2.7983 1.03095,-3.97653 0.29456,-1.03095 0.44184,-2.0619 0.58912,-3.09285 l 0.14728,-0.58912 c 0.14728,-1.03095 0.29456,-2.20918 0.29456,-3.38741 0,-0.29456 0,-0.58911 0.14727,-0.88367 l 0,-24.301 c 0,-1.47279 -1.17823,-2.65102 -2.50373,-2.65102 l -104.27338,0 c -1.32551,0 -2.50374,1.17823 -2.50374,2.65102 l 0,23.5646 z"
           id="path4293" />
        <path
           style="fill:none;stroke:#531516;stroke-width:6.31339931;stroke-linecap:round;stroke-miterlimit:10"
           inkscape:connector-curvature="0"
           stroke-miterlimit="10"
           d="m -367.34148,267.2949 c 0,0 -0.88367,23.12277 27.83569,32.40133"
           id="path4295" />
        <path
           style="fill:#531516"
           inkscape:connector-curvature="0"
           d="m -276.61775,229.59153 c 0.29456,-0.14728 0.58911,-0.14728 0.88367,-0.14728 -2.0619,-6.03843 -5.00748,-11.04591 -8.984,-15.02243 -8.83673,-8.68945 -22.2391,-12.37142 -40.05983,-10.89863 -35.93602,3.09285 -48.30744,37.55609 -48.89656,39.02887 l 6.92211,2.20919 c 0.14727,-0.29456 11.34046,-31.66494 42.56356,-34.31596 15.46427,-1.32551 26.95202,1.62007 34.16868,8.68945 3.24013,3.24013 5.74387,7.51122 7.51122,12.66597 1.91462,-0.58911 3.82925,-1.47279 5.89115,-2.20918 z"
           id="path4297" />
        <path
           style="fill:#531516"
           inkscape:connector-curvature="0"
           d="m -272.93578,298.81256 c -0.14728,0 -0.29456,0 -0.29456,0 -1.03095,-0.14728 -1.03095,-0.29456 -2.0619,-0.44184 -0.58912,0 -1.32551,-0.29456 -1.62007,-0.58911 -2.50374,16.20066 -7.36394,26.21562 -9.27856,29.89759 l -49.04384,0 -2.94557,-9.13129 -6.62755,-22.68093 -7.36394,2.20918 6.77483,22.68094 4.71292,14.58059 58.91151,0 1.17823,-1.76734 c 0.44184,-0.58912 7.21666,-11.19319 10.75135,-33.13773 -1.47279,1.62007 -3.97652,0.29456 -3.09285,-1.62006 z"
           id="path4299" />
        <path
           style="fill:#fdf4dd"
           inkscape:connector-curvature="0"
           d="m -337.59117,201.01945 c 0,0 -33.43228,-0.58912 -36.0833,54.49315 0,0 -0.29456,4.41836 3.53469,10.75135 2.50374,3.97652 6.77483,9.86768 14.13877,14.72787 1.32551,0.88368 3.68197,-0.14727 5.00747,-1.17823 3.97653,-3.24013 5.89116,-6.48026 9.27857,-5.89115 5.00748,1.03095 15.02243,8.24762 17.67345,7.80578 2.50374,-0.58912 31.37038,-35.19963 24.44828,-56.70233 -7.51122,-24.00644 -24.44828,-24.301 -37.99793,-24.00644 z"
           id="path4301" />
        <path
           style="fill:#d4c8b7"
           inkscape:connector-curvature="0"
           d="m -337.59117,203.52319 c 0,0 43.44724,17.96801 14.72788,63.03531 -1.76734,2.65102 -2.7983,-7.65849 -5.00748,-4.71292 0,0 -9.42584,10.16224 -16.93706,9.13129 l 22.82821,8.10033 c 0,0 22.68094,-23.5646 23.27005,-40.79622 0.7364,-17.23162 -11.63502,-41.23806 -38.8816,-34.75779 z"
           id="path4303" />
        <path
           style="fill:#531516"
           inkscape:connector-curvature="0"
           d="m -324.77791,283.49556 0,0 c -2.35646,0 -5.00748,-1.3255 -9.57312,-3.82924 -2.65102,-1.47279 -6.03843,-3.24014 -7.6585,-3.53469 -0.44184,0 -1.76735,1.3255 -2.65102,2.0619 -0.88367,0.88367 -1.76734,1.76734 -2.94557,2.65102 -0.7364,0.58911 -3.09286,2.35646 -5.89115,2.35646 -1.17823,0 -2.35647,-0.29456 -3.24014,-1.03095 -5.74387,-3.97653 -10.60407,-8.98401 -14.43332,-15.16972 -4.27108,-6.9221 -3.97653,-11.92958 -3.97653,-12.5187 2.65102,-54.64042 36.52514,-55.22954 37.99793,-55.22954 1.17823,0 2.35646,0 3.68197,0 13.8442,0 29.1612,2.94558 36.23058,25.33195 3.82925,12.07686 -2.50374,27.0993 -8.54217,37.40881 -3.97653,6.77483 -13.40237,20.47175 -17.52617,21.35543 -0.7364,0.14727 -1.17823,0.14727 -1.47279,0.14727 z m -17.3789,-15.02243 c 0.58912,0 1.03095,0 1.62007,0.14728 2.79829,0.58911 6.33299,2.50374 9.7204,4.27108 1.62006,0.88367 3.97652,2.20918 5.30203,2.65102 5.5966,-5.44931 25.77379,-32.54861 20.61903,-48.74928 -6.62754,-20.61903 -20.91358,-20.32447 -32.54861,-20.02991 -1.32551,0 -28.27752,0.58911 -30.48671,48.16016 0,0.14728 -0.14727,3.38741 2.7983,8.10033 3.24013,5.00748 7.06938,9.13129 11.63503,12.5187 0.29455,-0.14728 0.58911,-0.29456 0.88367,-0.58912 0.88367,-0.73639 1.76734,-1.47278 2.50374,-2.20918 2.35646,-2.0619 4.56564,-4.27108 7.95305,-4.27108 z"
           id="path4305" />
        <path
           style="fill:#531516"
           inkscape:connector-curvature="0"
           d="m -295.17488,306.76561 0,3.09286 c 0,1.91462 -1.32551,3.68197 -3.24013,3.82924 -2.20918,0.29456 -3.97653,-1.47278 -3.97653,-3.53469 l 0,-3.38741 c 0,-1.62007 -1.32551,-2.94557 -2.94557,-2.94557 l 0,0 c -1.62007,0 -2.94558,1.3255 -2.94558,2.94557 l 0,2.94558 c 0,4.8602 3.53469,9.13128 8.24761,9.7204 5.74387,0.73639 10.60407,-3.82925 10.60407,-9.42585 l 0,-3.38741 c 0,-1.62006 -1.3255,-2.94557 -2.94557,-2.94557 l 0,0 c -1.47279,0.14728 -2.7983,1.47278 -2.7983,3.09285 z"
           id="path4307" />
        <path
           style="fill:#531516"
           inkscape:connector-curvature="0"
           d="m -279.85788,309.41663 -0.14728,1.03095 c -0.14728,2.35646 -1.76735,3.82925 -3.82925,4.12381 -2.50374,0.29455 -4.56564,-1.62007 -4.56564,-3.97653 l 0,-3.68197 c 0,-1.76735 -1.47279,-3.24013 -3.24014,-3.24013 -1.76734,0 -3.24013,1.47278 -3.24013,3.24013 l 0,3.24013 c 0,5.30204 3.97653,10.01496 9.27856,10.60408 2.06191,0.29455 4.12381,-0.14728 5.89115,-0.88368 0,-0.14728 0,-0.14728 0,-0.29455 0.58912,-3.24014 1.32551,-6.62755 0.88368,-9.7204 -0.14728,0.14727 -0.58912,-1.32551 -1.03095,-0.44184 z"
           id="path4309" />
        <path
           style="fill:#531516"
           inkscape:connector-curvature="0"
           d="m -301.50787,296.60338 0,3.09285 c 0,1.91462 -1.3255,3.68197 -3.24013,3.82925 -2.20918,0.29456 -3.97653,-1.47279 -3.97653,-3.53469 l 0,-3.38741 c 0,-1.62007 -1.3255,-2.94558 -2.94557,-2.94558 l 0,0 c -1.62007,0 -2.94558,1.32551 -2.94558,2.94558 l 0,2.94557 c 0,4.8602 3.53469,9.13129 8.24761,9.7204 5.74388,0.73639 10.60408,-3.82925 10.60408,-9.42584 l 0,-3.38741 c 0,-1.62007 -1.32551,-2.94558 -2.94558,-2.94558 l 0,0 c -1.47279,0.14728 -2.7983,1.47279 -2.7983,3.09286 z"
           id="path4311" />
        <path
           style="fill:#531516"
           inkscape:connector-curvature="0"
           d="m -308.13541,306.76561 0,3.09286 c 0,1.91462 -1.32551,3.68197 -3.24013,3.82924 -2.20919,0.29456 -3.97653,-1.47278 -3.97653,-3.53469 l 0,-3.38741 c 0,-1.62007 -1.32551,-2.94557 -2.94558,-2.94557 l 0,0 c -1.62006,0 -2.94557,1.3255 -2.94557,2.94557 l 0,2.94558 c 0,4.8602 3.53469,9.13128 8.24761,9.7204 5.74387,0.73639 10.60407,-3.82925 10.60407,-9.42585 l 0,-3.38741 c 0,-1.62006 -1.32551,-2.94557 -2.94557,-2.94557 l 0,0 c -1.47279,0.29455 -2.7983,1.47278 -2.7983,3.09285 z"
           id="path4313" />
        <path
           style="fill:#531516"
           inkscape:connector-curvature="0"
           d="m -321.24322,311.47853 0,3.09286 c 0,1.91462 -1.32551,3.68197 -3.24013,3.82925 -2.20919,0.29455 -3.97653,-1.47279 -3.97653,-3.5347 l 0,-3.38741 c 0,-1.62006 -1.32551,-2.94557 -2.94558,-2.94557 l 0,0 c -1.62006,0 -2.94557,1.32551 -2.94557,2.94557 l 0,2.94558 c 0,4.8602 3.53469,9.13128 8.24761,9.7204 5.74387,0.73639 10.60407,-3.82925 10.60407,-9.42584 l 0,-3.38742 c 0,-1.62006 -1.32551,-2.94557 -2.94558,-2.94557 l 0,0 c -1.47278,0.14728 -2.79829,1.47279 -2.79829,3.09285 z"
           id="path4315" />
        <path
           style="fill:#531516"
           inkscape:connector-curvature="0"
           d="m -328.60716,311.47853 c 0,-1.62006 -1.32551,-2.94557 -2.94558,-2.94557 -1.62006,0 -2.94557,1.32551 -2.94557,2.94557 l 0,3.09286 c 0,1.91462 -1.32551,3.68197 -3.24014,3.82925 -0.14727,0 -0.58911,0.14727 -0.73639,0.14727 0.58912,1.91463 1.17823,3.82925 1.76735,5.5966 4.27108,-0.88368 7.95305,-4.8602 7.95305,-9.42584 l 0.14728,-3.24014 z"
           id="path4317" />
        <path
           style="fill:#531516"
           inkscape:connector-curvature="0"
           d="m -301.50787,316.92785 0,3.09285 c 0,1.91463 -1.3255,3.68197 -3.24013,3.82925 -2.20918,0.29456 -3.97653,-1.47279 -3.97653,-3.53469 l 0,-3.38741 c 0,-1.62007 -1.3255,-2.94558 -2.94557,-2.94558 l 0,0 c -1.62007,0 -2.94558,1.32551 -2.94558,2.94558 l 0,2.94557 c 0,4.8602 3.53469,9.13129 8.24761,9.7204 5.74388,0.7364 10.60408,-3.82925 10.60408,-9.42584 l 0,-3.38741 c 0,-1.62007 -1.32551,-2.94558 -2.94558,-2.94558 l 0,0 c -1.62007,0.14728 -2.7983,1.47279 -2.7983,3.09286 z"
           id="path4319" />
        <path
           style="fill:#531516"
           inkscape:connector-curvature="0"
           d="m -311.81738,316.63329 c -1.62007,0 -2.94558,1.32551 -2.94558,2.94558 l 0,3.24013 c 0,1.91462 -1.3255,3.68197 -3.38741,3.97653 -2.20918,0.29455 -4.1238,-1.47279 -4.1238,-3.68197 l 0,-0.44184 c -1.76735,0.88367 -3.82925,1.03095 -5.89115,1.17823 0.44183,4.41836 3.82924,8.24761 8.39489,8.83673 5.89115,0.73639 10.89863,-3.82925 10.89863,-9.57312 l 0,-3.38742 c 0.14727,-1.76734 -1.32551,-3.09285 -2.94558,-3.09285 z"
           id="path4321" />
        <path
           style="fill:none;stroke:#531516;stroke-width:7.84141684;stroke-miterlimit:10"
           inkscape:connector-curvature="0"
           stroke-miterlimit="10"
           d="m -390.46425,236.36635 c 0,0 6.62755,7.6585 5.89115,13.99149"
           id="path4323" />
        <path
           style="fill:none;stroke:#531516;stroke-width:5.22751331;stroke-linecap:round;stroke-miterlimit:10"
           inkscape:connector-curvature="0"
           stroke-miterlimit="10"
           d="m -341.27314,284.82107 c 0,0 5.30204,7.80578 10.60408,9.57312"
           id="path4325" />
        <path
           style="fill:#ffffff;stroke:#531516;stroke-width:5.22751331;stroke-linecap:round;stroke-miterlimit:10"
           inkscape:connector-curvature="0"
           stroke-miterlimit="10"
           d="m -292.67114,275.83707 c 0,0 7.51122,-5.5966 9.13129,-11.04591"
           id="path4327" />
        <path
           style="fill:#ffffff;stroke:#531516;stroke-width:5.22751331;stroke-linecap:round;stroke-miterlimit:10"
           inkscape:connector-curvature="0"
           stroke-miterlimit="10"
           d="m -281.77251,248.73777 c 0,0 9.27856,-1.32551 13.25509,-5.30203"
           id="path4329" />
        <path
           style="fill:#dea333"
           inkscape:connector-curvature="0"
           d="m -280.88884,233.2735 c 0,0 8.98401,2.50374 10.60408,3.24013 1.47278,0.7364 2.79829,-5.44931 4.1238,-5.44931 1.32551,0 2.35646,1.03095 6.77483,-1.62007 4.41836,-2.65102 2.79829,-7.21666 2.79829,-7.21666 0,0 7.6585,-2.0619 8.68945,-3.68197 1.03095,-1.62006 0,-12.81325 0,-12.81325 0,0 4.12381,-8.24761 11.19319,-3.24013 2.20918,1.47278 -6.48027,-13.69693 -7.36394,-21.20815 -0.88367,-7.51122 3.82925,7.80578 13.54965,1.17823 2.65101,-1.91462 -3.09286,-13.25509 -2.20919,-14.5806 1.17824,-1.62006 8.10034,9.7204 15.90611,2.65102 2.06191,-1.91462 1.03095,-8.10033 1.03095,-8.10033 0,0 20.76631,10.89863 24.59556,14.43332 3.82925,3.53469 -7.21666,-11.04591 -7.21666,-11.04591 0,0 -17.82073,-13.54965 -32.10677,-11.48775 -14.28605,2.06191 -20.1772,13.25509 -19.88264,22.82821 0.44184,9.7204 3.53469,26.51019 -4.41836,35.19963 -7.80578,8.68945 -18.99896,19.73536 -26.06835,20.91359 z"
           id="path4331" />
        <path
           style="fill:#ffffff;stroke:#531516;stroke-width:5.22751331;stroke-linecap:round;stroke-miterlimit:10"
           inkscape:connector-curvature="0"
           stroke-miterlimit="10"
           d="m -252.46403,359.49141 c 0,0 2.50374,-9.13128 0.44183,-14.28604"
           id="path4333" />
        <path
           style="fill:#edb89a;stroke:#531516;stroke-width:7.51121759;stroke-miterlimit:10"
           inkscape:connector-curvature="0"
           stroke-miterlimit="10"
           d="m -330.52178,332.39212 c 0,0 -16.20067,-10.60407 -24.00645,2.50374 -5.89115,9.86768 7.95306,19.88263 7.95306,19.88263 0,0 1.03095,-19.14624 16.05339,-22.38637 z"
           id="path4335" />
        <path
           style="fill:#edb89a;stroke:#531516;stroke-width:7.51121759;stroke-miterlimit:10"
           inkscape:connector-curvature="0"
           stroke-miterlimit="10"
           d="m -292.52386,332.39212 c 0,0 -16.20067,-10.60407 -24.00644,2.50374 -5.89115,9.86768 8.10033,19.88263 8.10033,19.88263 0,0 0.14728,-20.32447 15.90611,-22.38637 z"
           id="path4337" />
        <path
           style="fill:none;stroke:#531516;stroke-width:7.84141684;stroke-linecap:round;stroke-miterlimit:10"
           inkscape:connector-curvature="0"
           stroke-miterlimit="10"
           d="m -269.10653,245.64492 c 3.38741,23.71188 -3.68197,45.8037 -7.06939,63.91899"
           id="path4339" />
        <path
           style="fill:none;stroke:#531516;stroke-width:7.84141684;stroke-linecap:round;stroke-miterlimit:10"
           inkscape:connector-curvature="0"
           stroke-miterlimit="10"
           d="M -272.7885,276.13163"
           id="path4341" />
        <path
           style="fill:none;stroke:#531516;stroke-width:7.84141684;stroke-linecap:round;stroke-miterlimit:10"
           inkscape:connector-curvature="0"
           stroke-miterlimit="10"
           d="M -269.10653,255.95443"
           id="path4343" />
        <path
           style="fill:none;stroke:#531516;stroke-width:6.31339931;stroke-linecap:round;stroke-miterlimit:10"
           inkscape:connector-curvature="0"
           stroke-miterlimit="10"
           d="m -355.85374,338.43055 c 0,0 9.42585,-2.0619 12.66598,3.24013"
           id="path4345" />
        <path
           style="fill:none;stroke:#531516;stroke-width:6.31339931;stroke-linecap:round;stroke-miterlimit:10"
           inkscape:connector-curvature="0"
           stroke-miterlimit="10"
           d="m -317.41397,340.19789 c 0,0 9.42584,-3.38741 12.22414,0.7364"
           id="path4347" />
        <path
           inkscape:connector-curvature="0"
           d="m -263.50994,416.4883 c 2.35646,-3.82925 4.71292,-7.65849 6.77482,-11.7823 -2.50374,4.27108 -4.8602,8.24761 -6.77482,11.7823 z"
           id="path4349" />
        <path
           style="fill:#899d3b;stroke:#531516;stroke-width:6.31339931;stroke-linecap:round;stroke-miterlimit:10"
           inkscape:connector-curvature="0"
           stroke-miterlimit="10"
           d="m -377.65099,468.47771 c 3.24013,1.47279 6.9221,2.20918 10.01495,-1.03095 -1.62006,-4.12381 -4.56564,-7.80577 -8.10033,-10.30951 -2.7983,-2.06191 -6.62755,-3.09286 -9.7204,-1.03096 0.88367,4.8602 3.68197,10.4568 7.80578,12.37142 z"
           id="path4363" />
        <path
           style="fill:#899d3b;stroke:#531516;stroke-width:6.31339931;stroke-linecap:round;stroke-miterlimit:10"
           inkscape:connector-curvature="0"
           stroke-miterlimit="10"
           d="m -361.30305,459.49371 c -0.58912,3.53469 -2.7983,6.62754 -6.33299,7.80577 -2.79829,-3.38741 -3.97652,-8.10033 -2.94557,-12.37142 0.88367,-3.38741 3.53469,-6.03843 7.06938,-6.33298 1.91462,3.38741 2.7983,7.21666 2.20918,10.89863 z"
           id="path4365" />
        <path
           style="fill:#899d3b;stroke:#531516;stroke-width:6.31339931;stroke-linecap:round;stroke-miterlimit:10"
           inkscape:connector-curvature="0"
           stroke-miterlimit="10"
           d="m -366.89964,485.26749 c 3.68197,0.58912 7.51121,0.14728 9.86767,-3.82925 -2.50373,-3.53469 -6.33298,-6.9221 -10.30951,-7.95305 -3.38741,-0.88367 -7.21666,-1.47279 -10.16224,1.76735 2.06191,4.56564 6.18571,9.27856 10.60408,10.01495 z"
           id="path4367" />
        <path
           style="fill:#899d3b;stroke:#531516;stroke-width:6.31339931;stroke-linecap:round;stroke-miterlimit:10"
           inkscape:connector-curvature="0"
           stroke-miterlimit="10"
           d="m -352.17177,472.0124 c 0,3.68197 -1.62006,7.36394 -4.8602,9.42584 -3.53469,-2.65101 -5.74387,-6.9221 -5.44931,-11.34046 0.14728,-3.68197 2.50374,-6.9221 5.89115,-8.10033 2.7983,2.65101 4.41836,6.1857 4.41836,10.01495 z"
           id="path4369" />
        <path
           style="fill:#899d3b;stroke:#531516;stroke-width:6.31339931;stroke-linecap:round;stroke-miterlimit:10"
           inkscape:connector-curvature="0"
           stroke-miterlimit="10"
           d="m -352.46632,499.1117 c 4.1238,0 7.80577,-2.50374 9.13128,-6.48027 -3.24013,-2.94557 -7.80577,-5.30203 -11.92958,-5.30203 -3.82925,0 -7.51122,0.58911 -9.86768,4.41836 2.94558,4.27108 7.51122,7.36394 12.66598,7.36394 z"
           id="path4371" />
        <path
           style="fill:#899d3b;stroke:#531516;stroke-width:6.31339931;stroke-linecap:round;stroke-miterlimit:10"
           inkscape:connector-curvature="0"
           stroke-miterlimit="10"
           d="m -340.38946,481.88008 c 0.73639,3.82925 -0.14728,7.95305 -2.94558,10.75135 -4.1238,-1.76734 -7.21666,-5.59659 -7.80577,-10.01496 -0.58912,-3.82924 1.17823,-7.51121 4.41836,-9.72039 3.24013,2.0619 5.59659,5.30203 6.33299,8.984 z"
           id="path4373" />
        <path
           style="fill:#899d3b;stroke:#531516;stroke-width:6.31339931;stroke-linecap:round;stroke-miterlimit:10"
           inkscape:connector-curvature="0"
           stroke-miterlimit="10"
           d="m -335.08743,509.56849 c 4.27109,-1.03095 7.36394,-4.56564 7.80578,-8.83673 -3.97653,-2.20918 -8.68945,-3.09285 -13.10781,-2.35646 -3.97653,0.7364 -7.80578,3.09286 -8.98401,7.06939 3.82925,3.38741 9.13129,5.30203 14.28604,4.1238 z"
           id="path4375" />
        <path
           style="fill:#899d3b;stroke:#531516;stroke-width:6.31339931;stroke-linecap:round;stroke-miterlimit:10"
           inkscape:connector-curvature="0"
           stroke-miterlimit="10"
           d="m -326.69254,488.94946 c 1.62007,3.68197 1.47279,8.10034 -0.58911,11.63503 -4.41837,-0.7364 -8.39489,-3.82925 -10.01496,-8.10034 -1.32551,-3.82925 -0.29456,-7.95305 2.35646,-11.04591 3.82925,1.32551 6.77483,3.97653 8.24761,7.51122 z"
           id="path4377" />
        <path
           style="fill:#899d3b;stroke:#531516;stroke-width:6.31339931;stroke-linecap:round;stroke-miterlimit:10"
           inkscape:connector-curvature="0"
           stroke-miterlimit="10"
           d="m -381.33296,446.68045 c 1.03095,3.68197 3.82924,6.48027 7.36393,7.6585 2.20919,-2.7983 2.94558,-6.48027 1.91463,-10.01496 -1.03095,-3.68197 -3.82925,-6.48026 -7.36394,-7.65849 -2.0619,2.79829 -2.94558,6.48026 -1.91462,10.01495 z"
           id="path4379" />
        <g
           id="g4381"
           transform="matrix(1.4727878,0,0,1.4727878,-729.5,-79.252071)">
          <path
             style="fill:#899d3b;stroke:#531516;stroke-width:4.28669977;stroke-linecap:round;stroke-miterlimit:10"
             inkscape:connector-curvature="0"
             stroke-miterlimit="10"
             d="m 319.2,371.9 c -2.2,1 -4.7,1.5 -6.8,-0.7 1.1,-2.8 3.1,-5.3 5.5,-7 1.9,-1.4 4.5,-2.1 6.6,-0.7 -0.6,3.3 -2.5,7.1 -5.3,8.4 z"
             id="path4383" />
          <path
             style="fill:#899d3b;stroke:#531516;stroke-width:4.28669977;stroke-linecap:round;stroke-miterlimit:10"
             inkscape:connector-curvature="0"
             stroke-miterlimit="10"
             d="m 308.1,365.8 c 0.4,2.4 1.9,4.5 4.3,5.3 1.9,-2.3 2.7,-5.5 2,-8.4 -0.6,-2.3 -2.4,-4.1 -4.8,-4.3 -1.4,2.3 -2,4.9 -1.5,7.4 z"
             id="path4385" />
          <path
             style="fill:#899d3b;stroke:#531516;stroke-width:4.28669977;stroke-linecap:round;stroke-miterlimit:10"
             inkscape:connector-curvature="0"
             stroke-miterlimit="10"
             d="m 311.8,383.3 c -2.5,0.4 -5.1,0.1 -6.7,-2.6 1.7,-2.4 4.3,-4.7 7,-5.4 2.3,-0.6 4.9,-1 6.9,1.2 -1.4,3.1 -4.2,6.3 -7.2,6.8 z"
             id="path4387" />
          <path
             style="fill:#899d3b;stroke:#531516;stroke-width:4.28669977;stroke-linecap:round;stroke-miterlimit:10"
             inkscape:connector-curvature="0"
             stroke-miterlimit="10"
             d="m 301.8,374.3 c 0,2.5 1.1,5 3.3,6.4 2.4,-1.8 3.9,-4.7 3.7,-7.7 -0.1,-2.5 -1.7,-4.7 -4,-5.5 -1.9,1.8 -3,4.2 -3,6.8 z"
             id="path4389" />
          <path
             style="fill:#899d3b;stroke:#531516;stroke-width:4.28669977;stroke-linecap:round;stroke-miterlimit:10"
             inkscape:connector-curvature="0"
             stroke-miterlimit="10"
             d="m 302.1,392.7 c -2.8,0 -5.3,-1.7 -6.2,-4.4 2.2,-2 5.3,-3.6 8.1,-3.6 2.6,0 5.1,0.4 6.7,3 -2,2.9 -5.2,5 -8.6,5 z"
             id="path4391" />
          <path
             style="fill:#899d3b;stroke:#531516;stroke-width:4.28669977;stroke-linecap:round;stroke-miterlimit:10"
             inkscape:connector-curvature="0"
             stroke-miterlimit="10"
             d="m 293.9,381 c -0.5,2.6 0.1,5.4 2,7.3 2.8,-1.2 4.9,-3.8 5.3,-6.8 0.4,-2.6 -0.8,-5.1 -3,-6.6 -2.2,1.4 -3.8,3.6 -4.3,6.1 z"
             id="path4393" />
          <path
             style="fill:#899d3b;stroke:#531516;stroke-width:4.28669977;stroke-linecap:round;stroke-miterlimit:10"
             inkscape:connector-curvature="0"
             stroke-miterlimit="10"
             d="m 290.3,399.8 c -2.9,-0.7 -5,-3.1 -5.3,-6 2.7,-1.5 5.9,-2.1 8.9,-1.6 2.7,0.5 5.3,2.1 6.1,4.8 -2.7,2.3 -6.3,3.6 -9.7,2.8 z"
             id="path4395" />
          <path
             style="fill:#899d3b;stroke:#531516;stroke-width:4.28669977;stroke-linecap:round;stroke-miterlimit:10"
             inkscape:connector-curvature="0"
             stroke-miterlimit="10"
             d="m 284.5,385.8 c -1.1,2.5 -1,5.5 0.4,7.9 3,-0.5 5.7,-2.6 6.8,-5.5 0.9,-2.6 0.2,-5.4 -1.6,-7.5 -2.5,0.9 -4.6,2.7 -5.6,5.1 z"
             id="path4397" />
          <path
             style="fill:#899d3b;stroke:#531516;stroke-width:4.28669977;stroke-linecap:round;stroke-miterlimit:10"
             inkscape:connector-curvature="0"
             stroke-miterlimit="10"
             d="m 321.7,357.1 c -0.7,2.5 -2.6,4.4 -5,5.2 -1.5,-1.9 -2,-4.4 -1.3,-6.8 0.7,-2.5 2.6,-4.4 5,-5.2 1.4,1.9 2,4.4 1.3,6.8 z"
             id="path4399" />
        </g>
        <path
           style="fill:#ffffff;stroke:#531516;stroke-width:5.22751331;stroke-linecap:round;stroke-miterlimit:10"
           inkscape:connector-curvature="0"
           stroke-miterlimit="10"
           d="m -163.21309,344.76354 c 0,0 -2.94558,19.14624 -4.27109,22.68093"
           id="path4401" />
        <path
           style="fill:none;stroke:#531516;stroke-width:6.31339931;stroke-linecap:round;stroke-miterlimit:10"
           inkscape:connector-curvature="0"
           stroke-miterlimit="10"
           d="m -248.4875,243.28846 c 2.35646,20.61903 -4.41837,42.41629 -8.98401,57.586"
           id="path4403" />
        <path
           style="fill:#531516"
           inkscape:connector-curvature="0"
           d="m -205.92394,182.31504 2.06191,2.7983 c 1.3255,1.76734 1.17823,4.1238 -0.29456,5.59659 -1.76735,1.62007 -4.56564,1.32551 -6.03843,-0.58911 l -2.20918,-2.94558 c -1.03095,-1.47279 -3.09286,-1.76734 -4.56565,-0.58911 l 0,0 c -1.47278,1.03095 -1.76734,3.09285 -0.58911,4.56564 l 2.0619,2.65102 c 3.24014,4.27108 9.27857,5.89115 13.84421,3.24013 5.74387,-3.24013 7.06938,-10.60407 3.24013,-15.61155 l -2.20918,-2.94558 c -1.03095,-1.47278 -3.09286,-1.76734 -4.56564,-0.58911 l 0,0 c -1.47279,1.03095 -1.76735,2.94557 -0.7364,4.41836 z"
           id="path4405" />
        <path
           style="fill:#531516"
           inkscape:connector-curvature="0"
           d="m -215.34978,194.68646 2.0619,2.7983 c 1.32551,1.76734 1.17823,4.27108 -0.44183,5.74387 -1.91463,1.76734 -4.71292,1.47279 -6.18571,-0.44184 l -2.20918,-2.94557 c -1.03095,-1.47279 -3.24014,-1.76735 -4.71292,-0.58912 l 0,0 c -1.47279,1.17823 -1.76735,3.24014 -0.7364,4.56564 l 2.06191,2.65102 c 3.24013,4.27109 9.27856,5.74387 14.13876,2.94558 5.89115,-3.38741 7.36394,-10.75135 3.68197,-15.90611 l -2.20918,-2.94558 c -1.03096,-1.47278 -3.24014,-1.76734 -4.71293,-0.58911 l 0,0 c -1.47278,1.17823 -1.76734,3.24013 -0.73639,4.71292 z"
           id="path4407" />
        <path
           style="fill:#531516"
           inkscape:connector-curvature="0"
           d="m -225.51201,206.9106 2.0619,2.7983 c 1.32551,1.76734 1.17823,4.1238 -0.29456,5.59659 -1.76734,1.62007 -4.56564,1.32551 -6.03843,-0.58912 l -2.20918,-2.94557 c -1.03095,-1.47279 -3.09286,-1.76735 -4.56564,-0.58912 l 0,0 c -1.47279,1.03095 -1.76735,3.09286 -0.58912,4.56565 l 2.0619,2.65101 c 3.24014,4.27109 9.27857,5.89115 13.84421,3.24014 5.74387,-3.24014 7.06938,-10.60408 3.24013,-15.61155 l -2.20918,-2.94558 c -1.03095,-1.47279 -3.09285,-1.76735 -4.56564,-0.58911 l 0,0 c -1.47279,0.88367 -1.76735,2.94557 -0.73639,4.41836 z"
           id="path4409" />
        <path
           style="fill:#531516"
           inkscape:connector-curvature="0"
           d="m -234.20146,167.73444 2.0619,2.7983 c 1.32551,1.76735 1.17823,4.12381 -0.29456,5.59659 -1.76734,1.62007 -4.56564,1.32551 -6.03843,-0.58911 l -2.20918,-2.94558 c -1.03095,-1.47279 -3.09285,-1.76734 -4.56564,-0.58911 l 0,0 c -1.47279,1.03095 -1.76735,3.09285 -0.58912,4.56564 l 2.06191,2.65102 c 3.24013,4.27108 9.27856,5.89115 13.8442,3.24013 5.74387,-3.24013 7.06938,-10.60407 3.24013,-15.61155 l -2.20918,-2.94558 c -1.03095,-1.47278 -3.09285,-1.76734 -4.56564,-0.58911 l 0,0 c -1.62007,0.88367 -1.91462,2.94558 -0.73639,4.41836 z"
           id="path4411" />
        <path
           style="fill:none;stroke:#531516;stroke-width:6.31339931;stroke-linecap:round;stroke-miterlimit:10"
           inkscape:connector-curvature="0"
           stroke-miterlimit="10"
           d="m -287.95822,234.59901 c 1.76735,0 31.37038,-5.15476 36.0833,-31.9595 4.71292,-26.80473 -5.15475,-52.87308 29.60304,-48.74927 32.99045,3.82925 78.20503,69.07375 70.39926,167.01413 -0.88368,10.75136 -6.18571,53.75676 -10.16224,52.57853 -7.36394,-2.20918 -14.5806,-17.82073 -14.5806,-17.82073 -0.58911,1.91462 -2.35646,4.8602 -5.74387,5.00747 -3.82925,0.14728 -9.27857,-4.86019 -12.37142,-13.54964 0,0 -2.65102,3.24013 -7.06938,1.03095 -2.94558,-1.47279 -6.33299,-4.8602 -8.98401,-11.48775 0,0 -9.42584,2.35646 -15.46427,-10.75135 0,0 -13.10781,2.65102 -17.08434,-10.75135 0,0 -7.21666,5.00748 -13.69692,-11.63502 0,0 -8.24762,2.65102 -16.20067,-4.56564"
           id="path4413" />
        <path
           style="fill:#531516"
           inkscape:connector-curvature="0"
           d="m -245.39465,227.67691 1.91462,2.50374 c 1.17823,1.47278 1.17823,3.82924 -0.29455,5.15475 -1.62007,1.47279 -4.12381,1.32551 -5.44932,-0.44183 l -2.0619,-2.65102 c -1.03095,-1.32551 -2.7983,-1.47279 -4.12381,-0.58912 l 0,0 c -1.32551,1.03096 -1.47278,2.7983 -0.58911,4.12381 l 1.91462,2.35646 c 2.94558,3.82925 8.39489,5.15476 12.5187,2.7983 5.15476,-2.94558 6.33299,-9.57312 2.79829,-14.13877 l -2.0619,-2.65101 c -1.03095,-1.32551 -2.79829,-1.47279 -4.1238,-0.58912 l 0,0 c -1.17823,1.03095 -1.47279,2.7983 -0.44184,4.12381 z"
           id="path4415" />
        <path
           style="fill:#531516"
           inkscape:connector-curvature="0"
           d="m -259.09158,224.73133 1.91463,2.50374 c 1.17823,1.47279 1.17823,3.82925 -0.29456,5.15476 -1.62007,1.47279 -4.12381,1.32551 -5.44931,-0.44184 l -2.06191,-2.65102 c -1.03095,-1.32551 -2.79829,-1.47278 -4.1238,-0.58911 l 0,0 c -1.32551,1.03095 -1.47279,2.79829 -0.58912,4.1238 l 1.91463,2.35646 c 2.94557,3.82925 8.39489,5.15476 12.51869,2.7983 5.15476,-2.94557 6.33299,-9.57312 2.7983,-14.13876 l -2.0619,-2.65102 c -1.03096,-1.32551 -2.7983,-1.47279 -4.12381,-0.58911 l 0,0 c -1.32551,0.88367 -1.47279,2.79829 -0.44184,4.1238 z"
           id="path4417" />
        <path
           style="fill:#531516"
           inkscape:connector-curvature="0"
           d="m -259.68069,237.83914 2.0619,2.65102 c 1.32551,1.62007 1.17823,4.12381 -0.29456,5.44932 -1.76734,1.62006 -4.41836,1.3255 -5.89115,-0.44184 l -2.20918,-2.94558 c -1.03095,-1.32551 -3.09285,-1.62006 -4.41836,-0.58911 l 0,0 c -1.32551,1.03095 -1.62007,3.09285 -0.58912,4.41836 l 2.06191,2.65102 c 3.24013,4.12381 8.984,5.59659 13.54964,2.94558 5.44932,-3.24014 6.77483,-10.30952 3.09286,-15.16972 l -2.20918,-2.94557 c -1.03096,-1.32551 -3.09286,-1.62007 -4.41837,-0.58912 l 0,0 c -1.62006,1.17823 -1.91462,3.09285 -0.73639,4.56564 z"
           id="path4419" />
        <path
           style="fill:#531516"
           inkscape:connector-curvature="0"
           d="m -236.85248,216.04188 2.0619,2.65102 c 1.17823,1.62007 1.17823,3.97653 -0.29456,5.30204 -1.62006,1.62006 -4.27108,1.32551 -5.59659,-0.44184 l -2.0619,-2.7983 c -1.03095,-1.32551 -2.94558,-1.62006 -4.27109,-0.58911 l 0,0 c -1.32551,1.03095 -1.62006,2.94557 -0.58911,4.27108 l 1.91462,2.50374 c 3.09286,3.97653 8.68945,5.44932 13.10781,2.7983 5.30204,-3.09285 6.48027,-10.01496 2.94558,-14.72788 l -2.0619,-2.7983 c -1.03096,-1.3255 -2.94558,-1.62006 -4.27109,-0.58911 l 0,0 c -1.62006,1.17823 -1.91462,3.09285 -0.88367,4.41836 z"
           id="path4421" />
        <path
           style="fill:#531516"
           inkscape:connector-curvature="0"
           d="m -239.5035,197.63204 2.35646,2.94557 c 1.32551,1.76735 1.32551,4.41836 -0.29456,6.03843 -1.91462,1.76735 -4.8602,1.47279 -6.48026,-0.58911 l -2.50374,-3.24014 c -1.17823,-1.47279 -3.38741,-1.91462 -4.8602,-0.73639 l 0,0 c -1.47279,1.17823 -1.76735,3.38741 -0.58912,4.8602 l 2.20919,2.94557 c 3.53469,4.56565 9.86767,6.18571 14.87515,3.38742 6.03843,-3.38742 7.36394,-11.34047 3.24014,-16.78978 l -2.50374,-3.24014 c -1.17823,-1.47279 -3.38742,-1.91462 -4.8602,-0.73639 l 0,0 c -1.47279,1.47279 -1.76735,3.68197 -0.58912,5.15476 z"
           id="path4423" />
        <path
           style="fill:none;stroke:#531516;stroke-width:6.31339931;stroke-linecap:round;stroke-miterlimit:10"
           inkscape:connector-curvature="0"
           stroke-miterlimit="10"
           d="m -196.93993,189.38442 c 0,0 17.96801,6.48027 33.285,32.99045"
           id="path4425" />
        <path
           style="fill:none;stroke:#531516;stroke-width:6.31339931;stroke-linecap:round;stroke-miterlimit:10"
           inkscape:connector-curvature="0"
           stroke-miterlimit="10"
           d="m -208.86951,201.75584 c 30.92854,43.29996 29.01392,100.88597 13.99148,147.1315"
           id="path4427" />
        <path
           style="fill:none;stroke:#531516;stroke-width:6.31339931;stroke-linecap:round;stroke-miterlimit:10"
           inkscape:connector-curvature="0"
           stroke-miterlimit="10"
           d="m -216.67529,211.18168 c 18.11529,39.02888 20.02992,86.30537 6.48027,125.48152"
           id="path4429" />
        <path
           style="fill:none;stroke:#531516;stroke-width:6.31339931;stroke-linecap:round;stroke-miterlimit:10"
           inkscape:connector-curvature="0"
           stroke-miterlimit="10"
           d="m -226.83752,221.4912 c 16.34794,35.19963 10.45679,70.54653 0,104.71521"
           id="path4431" />
        <path
           style="fill:none;stroke:#531516;stroke-width:6.31339931;stroke-linecap:round;stroke-miterlimit:10"
           inkscape:connector-curvature="0"
           stroke-miterlimit="10"
           d="m -236.11609,230.4752 c 5.15476,28.71937 1.62007,55.5241 -6.62754,83.35979"
           id="path4433" />
        <path
           style="fill:none;stroke:#531516;stroke-width:6.31339931;stroke-linecap:round;stroke-miterlimit:10"
           inkscape:connector-curvature="0"
           stroke-miterlimit="10"
           d="m -257.47151,250.21056 c -0.88367,17.08434 -8.24761,32.84317 -15.46427,44.33091"
           id="path4435" />
        <path
           style="fill:#ffffff;stroke:#531516;stroke-width:5.22751331;stroke-linecap:round;stroke-miterlimit:10"
           inkscape:connector-curvature="0"
           stroke-miterlimit="10"
           d="m -210.04774,298.07616 c 0,0 -2.94558,21.35543 -5.30204,27.0993"
           id="path4437" />
        <path
           style="fill:#ffffff;stroke:#531516;stroke-width:5.22751331;stroke-linecap:round;stroke-miterlimit:10"
           inkscape:connector-curvature="0"
           stroke-miterlimit="10"
           d="m -192.81613,296.01426 c 0,0 -1.3255,12.66598 -2.79829,18.85168"
           id="path4439" />
        <path
           style="fill:#ffffff;stroke:#531516;stroke-width:5.22751331;stroke-linecap:round;stroke-miterlimit:10"
           inkscape:connector-curvature="0"
           stroke-miterlimit="10"
           d="m -187.95593,217.51467 c 0,0 3.38742,12.37142 4.27109,18.55713"
           id="path4441" />
        <path
           style="fill:#531516"
           inkscape:connector-curvature="0"
           d="m -219.47358,175.09838 2.0619,2.7983 c 1.32551,1.76734 1.17823,4.1238 -0.29456,5.59659 -1.76734,1.62007 -4.56564,1.32551 -6.03843,-0.58911 l -2.20918,-2.94558 c -1.03095,-1.47279 -3.09286,-1.76734 -4.56564,-0.58911 l 0,0 c -1.47279,1.03095 -1.76735,3.09285 -0.58912,4.56564 l 2.0619,2.65102 c 3.24014,4.27108 9.27857,5.89115 13.84421,3.24013 5.74387,-3.24013 7.06938,-10.60407 3.24013,-15.61155 l -2.20918,-2.94558 c -1.03095,-1.47278 -3.09285,-1.76734 -4.56564,-0.58911 l 0,0 c -1.47279,0.88367 -1.76735,2.94557 -0.73639,4.41836 z"
           id="path4443" />
        <path
           style="fill:#531516"
           inkscape:connector-curvature="0"
           d="m -229.19398,186.73341 2.0619,2.79829 c 1.32551,1.76735 1.17823,4.12381 -0.29456,5.5966 -1.76734,1.62006 -4.56564,1.32551 -6.03843,-0.58912 l -2.20918,-2.94557 c -1.03095,-1.47279 -3.09286,-1.76735 -4.56564,-0.58912 l 0,0 c -1.47279,1.03095 -1.76735,3.09285 -0.58912,4.56564 l 2.0619,2.65102 c 3.24014,4.27109 9.27857,5.89115 13.84421,3.24013 5.74387,-3.24013 7.06938,-10.60407 3.24013,-15.61155 l -2.20918,-2.94557 c -1.03095,-1.47279 -3.09285,-1.76735 -4.56564,-0.58912 l 0,0 c -1.47279,0.88367 -1.76735,2.94558 -0.73639,4.41837 z"
           id="path4445" />
        <path
           style="fill:#531516"
           inkscape:connector-curvature="0"
           d="m -327.57621,275.98435 c 0.14728,-0.14728 -1.76734,-10.4568 2.20918,-18.11529 0,0 0,7.95305 1.62007,8.984 1.62007,1.17823 15.02243,-23.71188 15.02243,-23.71188 0,0 -4.1238,9.86768 0.58912,9.57312 l 1.03095,5.44931 -17.67345,19.73536 -2.7983,-1.91462 z"
           id="path4447" />
        <path
           inkscape:connector-curvature="0"
           d="M -318.73948,344.76354"
           id="path4449" />
        <path
           style="fill:none;stroke:#531516;stroke-width:7.84141684;stroke-linecap:round;stroke-miterlimit:10"
           inkscape:connector-curvature="0"
           stroke-miterlimit="10"
           d="M -363.65951,345.79449"
           id="path4451" />
        <polyline
           style="fill:none;stroke:#531516;stroke-width:4.37330008;stroke-linecap:round;stroke-miterlimit:10"
           stroke-miterlimit="10"
           points="247.6,331   255.5,331 309.3,331 "
           id="polyline4453"
           transform="matrix(1.4727878,0,0,1.4727878,-729.5,-79.252071)" />
        <line
           style="fill:none;stroke:#531516;stroke-width:8.12227821;stroke-linecap:round;stroke-miterlimit:10"
           stroke-miterlimit="10"
           x1="-348.48978"
           y1="429.00702"
           x2="-290.90381"
           y2="429.00702"
           id="line4455" />
        <line
           style="fill:none;stroke:#531516;stroke-width:6.44094276;stroke-linecap:round;stroke-miterlimit:10"
           stroke-miterlimit="10"
           x1="-328.75443"
           y1="448.74234"
           x2="-311.37555"
           y2="448.74234"
           id="line4457" />
        <line
           style="fill:none;stroke:#531516;stroke-width:5.89115143;stroke-linecap:round;stroke-miterlimit:10"
           stroke-miterlimit="10"
           x1="-326.83981"
           y1="421.2012"
           x2="-320.94867"
           y2="421.2012"
           id="line4459" />
        <line
           style="fill:none;stroke:#531516;stroke-width:5.89115143;stroke-linecap:round;stroke-miterlimit:10"
           stroke-miterlimit="10"
           x1="-309.75546"
           y1="415.16281"
           x2="-301.06604"
           y2="415.16281"
           id="line4461" />
        <line
           style="fill:none;stroke:#531516;stroke-width:5.89115143;stroke-linecap:round;stroke-miterlimit:10"
           stroke-miterlimit="10"
           x1="-288.69464"
           y1="416.48831"
           x2="-280.00516"
           y2="416.48831"
           id="line4463" />
        <line
           style="fill:none;stroke:#531516;stroke-width:5.89115143;stroke-linecap:round;stroke-miterlimit:10"
           stroke-miterlimit="10"
           x1="-357.17923"
           y1="417.37198"
           x2="-339.94763"
           y2="417.37198"
           id="line4465" />
        <line
           style="fill:none;stroke:#531516;stroke-width:6.44094276;stroke-linecap:round;stroke-miterlimit:10"
           stroke-miterlimit="10"
           x1="-336.41293"
           y1="440.64203"
           x2="-303.12793"
           y2="440.64203"
           id="line4467" />
        <path
           style="fill:#e3a160"
           inkscape:connector-curvature="0"
           d="m -383.98398,226.3514 c 0,0 -1.47279,1.62006 -3.09286,2.65102 -5.15475,2.79829 -21.06086,8.83672 -13.69692,25.33195 0,0 13.40237,-10.89863 24.44827,-10.75136 16.20067,0.14728 28.71937,17.52618 29.75032,18.55713 0.88367,0.88367 26.95201,-24.59556 12.81325,-46.54009 -1.76734,-2.7983 -3.82925,-4.56565 -4.1238,-4.8602 -8.54217,-6.77483 -20.47175,-3.68197 -23.12277,-2.94558 0.14728,-0.88367 0.58911,-3.24013 -0.7364,-5.74387 -0.58911,-1.03095 -1.47278,-2.0619 -2.65101,-3.09286 -6.03843,-4.27108 -10.60408,0.58912 -13.99149,4.27109 -4.27108,4.41836 -3.09285,4.41836 -8.54217,7.80577 -2.94557,1.76735 -14.13876,5.30204 -12.22414,13.69693 1.47279,6.9221 15.16972,1.62007 15.16972,1.62007 z"
           id="path4469" />
        <path
           style="fill:#f7d5c4"
           inkscape:connector-curvature="0"
           d="m -334.49831,216.92556 c 0,0 -14.43332,-10.16224 -26.51018,0.29455 -12.07686,10.4568 -28.13025,16.20067 -28.13025,16.20067 0,0 17.96801,-15.02244 23.71188,-20.76631 5.5966,-5.89115 22.2391,-10.60407 30.92855,4.27109 z"
           id="path4471" />
        <path
           style="fill:#efcda3"
           inkscape:connector-curvature="0"
           d="m -389.4333,232.38983 c 0,0 4.56565,7.36394 2.35646,11.63502 -2.0619,4.27109 -12.81325,7.80578 -12.81325,7.80578 0,0 -2.50374,-16.20067 10.45679,-19.4408 z"
           id="path4473" />
        <path
           style="fill:#b06a27"
           inkscape:connector-curvature="0"
           d="m -358.2102,250.50512 c 0,0 25.47923,-5.74387 17.67346,-39.32344 0,0 13.10781,8.39489 8.984,26.06835 -4.1238,17.82073 -15.02243,24.59555 -15.02243,24.59555 l -11.63503,-11.34046 z"
           id="path4475" />
        <path
           style="fill:#531516"
           inkscape:connector-curvature="0"
           d="m -355.55918,225.02589 c 0,2.7983 -4.41836,6.9221 -7.21666,6.9221 -2.79829,0 -5.00748,-2.20918 -5.00748,-5.00748 0,-2.79829 3.53469,-5.00748 6.33299,-5.00748 2.7983,0 5.89115,0.29456 5.89115,3.09286 z"
           id="path4477" />
        <path
           style="fill:#edb89a;stroke:#531516;stroke-width:6.31339931;stroke-linecap:round;stroke-miterlimit:10"
           inkscape:connector-curvature="0"
           stroke-miterlimit="10"
           d="m -391.20064,233.71534 c 0,0 4.71292,4.27108 3.82925,10.75135"
           id="path4479" />
        <path
           style="fill:#ee672c"
           inkscape:connector-curvature="0"
           d="m -377.20916,203.08135 c 0,0 -3.97653,5.89115 -8.68945,8.68945 -4.71292,2.7983 -14.13876,7.06938 -11.48774,11.19319 2.65102,4.1238 11.63502,3.68197 22.23909,-3.5347 10.60408,-7.21666 12.81326,-10.45679 11.92959,-14.58059 -0.7364,-4.12381 -5.15476,-9.86768 -13.99149,-1.76735 z"
           id="path4481" />
        <path
           style="fill:#a74a38"
           inkscape:connector-curvature="0"
           d="m -371.17073,196.74836 c 0,0 5.00748,13.69693 -11.7823,23.71189 0,0 -10.01496,6.33298 -13.25509,5.89115 0,0 -0.14728,0.88367 6.18571,0.44183 6.18571,-0.44183 27.98297,-13.10781 28.27752,-18.99896 0.29456,-5.89115 -6.48026,-11.19319 -9.42584,-11.04591 z"
           id="path4483" />
        <path
           style="fill:#531516"
           inkscape:connector-curvature="0"
           d="m -346.57517,265.08572 -1.32551,0 -1.03095,-0.88368 c -0.14728,-0.14727 -0.44184,-0.44183 -0.7364,-0.88367 -11.19318,-13.54965 -20.7663,-16.6425 -26.65746,-16.6425 l -0.14727,0 c -9.7204,0 -22.09182,10.01496 -22.2391,10.01496 l -3.24013,2.65101 -1.62007,-3.82924 c -5.59659,-12.5187 0.58912,-20.1772 6.77482,-24.59556 -4.1238,-1.17823 -5.30203,-4.12381 -5.59659,-5.59659 -2.35646,-9.42585 7.21666,-13.99149 11.7823,-16.20067 0.7364,-0.29456 1.47279,-0.73639 1.76735,-0.88367 3.38741,-2.06191 3.82925,-2.50374 5.15476,-4.12381 0.58911,-0.73639 1.47278,-1.76734 2.79829,-3.09285 l 0.14728,-0.14728 c 2.7983,-2.94558 6.48027,-6.77483 11.48775,-6.77483 2.20918,0 4.41836,0.7364 6.48026,2.20919 2.7983,1.91462 4.12381,4.41836 4.71292,6.77482 1.76735,-0.44184 3.68197,-0.58911 5.5966,-0.58911 4.27108,0 14.87515,1.17823 21.35542,11.34046 8.24761,12.96053 4.12381,26.3629 -0.88367,35.49419 -3.68197,6.33298 -11.04591,15.75883 -14.5806,15.75883 z m -30.04487,-24.74284 0.29455,0 c 7.06939,0.14728 17.96802,3.24013 30.19215,17.3789 3.38742,-3.38741 10.30952,-11.7823 12.66598,-21.79726 1.62007,-6.9221 0.58911,-13.25509 -2.94558,-18.85169 -4.8602,-7.65849 -12.81325,-8.39489 -16.05338,-8.39489 -3.53469,0 -6.03843,0.88368 -6.77483,1.47279 l -7.36394,5.5966 2.35646,-8.98401 c 0,-0.29456 0.7364,-3.38741 -2.20918,-5.44932 -1.03095,-0.73639 -1.91462,-1.03095 -2.79829,-1.03095 -2.35646,0 -4.8602,2.65102 -6.92211,4.8602 l -0.14728,0.14728 c -1.17823,1.32551 -1.91462,2.20918 -2.50373,2.7983 -1.76735,2.0619 -2.65102,2.94557 -6.62755,5.44931 -0.58912,0.44184 -1.47279,0.7364 -2.35646,1.17823 -5.89115,2.7983 -9.27856,5.30204 -8.39489,8.98401 0.14728,0.44184 0.29456,1.32551 3.09285,1.32551 3.09286,0 6.92211,-1.17823 8.10034,-1.76735 l 11.7823,-4.56564 -8.24761,9.57312 c -0.14728,0.14728 -1.91463,2.20918 -3.97653,3.38741 -0.58912,0.29456 -1.17823,0.58912 -1.91462,1.03096 -7.06939,3.53469 -13.69693,7.80577 -11.78231,16.49522 4.8602,-3.38741 14.13877,-8.83673 22.53366,-8.83673 z"
           id="path4485" />
        <path
           style="fill:#531516;stroke:#531516;stroke-width:6.60309649;stroke-miterlimit:10"
           inkscape:connector-curvature="0"
           stroke-miterlimit="10"
           d="m -359.83026,206.76332 c 0,0 -12.96053,17.52617 -31.07582,22.53365"
           id="path4487" />
        <path
           style="fill:#531516"
           inkscape:connector-curvature="0"
           d="m -336.11838,217.51467 c 0,0 3.24013,9.57312 -5.74387,21.06087 0,0 10.75135,-6.48027 10.75135,-15.317 l -5.00748,-5.74387 z"
           id="path4489" />
        <g
           id="g4930"
           transform="translate(-258.59905,-77.781746)">
          <text
             y="128.9718"
             x="333.42334"
             style="font-size:44.76138306px;font-family:VAGRound;fill:#531516"
             transform="matrix(0,1.3127452,-0.76176244,0,0,0)"
             font-size="23.1517"
             id="text4353">V</text>
          <text
             style="font-size:62.92621231px;font-family:VAGRound;fill:#531516"
             transform="matrix(1.359676,-0.34200394,0.30117523,0.65971371,0,0)"
             font-size="30.9848"
             id="text4357"
             x="-187.77676"
             y="622.08038">/</text>
          <text
             y="-27.444794"
             x="333.42334"
             style="font-size:44.76138306px;font-family:VAGRound;fill:#531516"
             transform="matrix(0,1.3127452,0.76176245,0,0,0)"
             font-size="23.1517"
             id="text4353-3">V</text>
        </g>
      </g>
    </g>
  </g>
</svg>
